<?xml version="1.0" encoding="UTF-8"?>
<svg width="830px" height="113px" viewBox="0 0 830 113" version="1.1" xmlns="http://www.w3.org/2000/svg" xmlns:xlink="http://www.w3.org/1999/xlink">
    <!-- Generator: Sketch 42 (36781) - http://www.bohemiancoding.com/sketch -->
    <title>Artboard 3</title>
    <desc>Created with Sketch.</desc>
    <defs>
        <polygon id="path-1" points="23.5239 44 0 44 0 0.517539962 47.0478 0.517539962 47.0478 44"></polygon>
        <polygon id="path-3" points="120.2589 0.132 0.1219 0.132 0.1219 111 120.2589 111 120.2589 0.132"></polygon>
    </defs>
    <g id="eu-rockies-office-hours" stroke="none" stroke-width="1" fill="none" fill-rule="evenodd">
        <g id="Artboard-3">
            <g id="Page-1">
                <g id="Group-3" transform="translate(0.000000, 67.868000)">
                    <mask id="mask-2" fill="white">
                        <use xlink:href="#path-1"></use>
                    </mask>
                    <g id="Clip-2"></g>
                    <path d="M-0.0002,44 L20.0218,44 L47.0478,0.571 C36.0588,-0.178 22.2248,7.191 22.2248,7.191 L-0.0002,44 Z" id="Fill-1" fill="#1B9685" mask="url(#mask-2)"></path>
                </g>
                <path d="M27.0076,111.868 L59.6026,111.868 L101.3456,42.978 C81.6046,42.254 61.4786,54.093 61.4786,54.093 L27.0076,111.868 Z" id="Fill-4" fill="#02B29C"></path>
                <g id="Group-8" transform="translate(66.000000, 0.868000)">
                    <mask id="mask-4" fill="white">
                        <use xlink:href="#path-3"></use>
                    </mask>
                    <g id="Clip-7"></g>
                    <path d="M0.1219,111 L40.6329,111 L120.2589,0.176 C88.7499,-0.91 56.1519,18.147 56.1519,18.147 L0.1219,111 Z" id="Fill-6" fill="#49BDA6" mask="url(#mask-4)"></path>
                </g>
                <polygon id="Fill-9" fill="#FFFFFF" points="136.6981 58.1922 168.0261 58.1922 168.0261 66.3752 146.2081 66.3752 146.2081 80.0862 163.8251 80.0862 163.8251 88.2682 146.2081 88.2682 146.2081 102.3472 169.2061 102.3472 169.2061 110.5302 136.6981 110.5302"></polygon>
                <path d="M200.2449,57.3075 C212.9969,57.3075 219.5569,64.4575 219.5569,64.4575 L214.9869,71.5355 C214.9869,71.5355 209.0159,66.0055 200.6859,66.0055 C189.6299,66.0055 183.1409,74.2625 183.1409,83.9935 C183.1409,93.9445 189.8499,102.7165 200.7609,102.7165 C209.8269,102.7165 215.9459,96.0815 215.9459,96.0815 L220.9579,102.9375 C220.9579,102.9375 213.7329,111.4145 200.3909,111.4145 C184.3949,111.4145 173.3389,99.5465 173.3389,84.1405 C173.3389,68.9545 184.8369,57.3075 200.2449,57.3075" id="Fill-11" fill="#FFFFFF"></path>
                <polygon id="Fill-13" fill="#FFFFFF" points="227.8914 58.1922 237.3994 58.1922 237.3994 80.3802 261.3564 80.3802 261.3564 58.1922 270.8664 58.1922 270.8664 110.5302 261.3564 110.5302 261.3564 88.5632 237.3994 88.5632 237.3994 110.5302 227.8914 110.5302"></polygon>
                <path d="M305.7371,102.7166 C315.3211,102.7166 322.9871,94.7546 322.9871,83.9926 C322.9871,73.6726 315.3211,66.0056 305.7371,66.0056 C296.1551,66.0056 288.4871,73.6726 288.4871,83.9926 C288.4871,94.7546 296.1551,102.7166 305.7371,102.7166 M305.7371,57.3076 C321.1431,57.3076 332.7901,69.0286 332.7901,83.9926 C332.7901,99.3996 321.1431,111.4146 305.7371,111.4146 C290.3311,111.4146 278.6841,99.3996 278.6841,83.9926 C278.6841,69.0286 290.3311,57.3076 305.7371,57.3076" id="Fill-15" fill="#FFFFFF"></path>
                <path d="M340.8289,58.7078 L345.9889,58.7078 L345.9889,92.3958 C345.9889,101.3148 351.7389,106.6968 360.6589,106.6968 C369.5789,106.6968 375.4009,101.3148 375.4009,92.2488 L375.4009,58.7078 L380.4889,58.7078 L380.4889,92.4698 C380.4889,103.9698 372.4539,111.4148 360.7329,111.4148 C348.9379,111.4148 340.8289,103.9698 340.8289,92.4698 L340.8289,58.7078 Z" id="Fill-17" fill="#FFFFFF"></path>
                <path d="M392.2137,100.8739 C392.2137,100.8739 397.5947,106.5499 405.7767,106.5499 C411.4517,106.5499 416.0967,103.1589 416.0967,97.5569 C416.0967,84.5089 390.2237,87.8259 390.2237,71.7559 C390.2237,64.3109 396.7837,57.8239 406.3657,57.8239 C415.3597,57.8239 420.2257,62.8369 420.2257,62.8369 L417.7197,67.1119 C417.7197,67.1119 413.1497,62.6889 406.3657,62.6889 C399.7317,62.6889 395.4557,67.0379 395.4557,71.6079 C395.4557,83.9189 421.3307,80.3809 421.3307,97.4089 C421.3307,105.1489 415.3597,111.4149 405.6297,111.4149 C395.0147,111.4149 389.1907,104.7799 389.1907,104.7799 L392.2137,100.8739 Z" id="Fill-19" fill="#FFFFFF"></path>
                <polygon id="Fill-21" fill="#FFFFFF" points="430.8426 58.7078 460.0336 58.7078 460.0336 63.2788 435.9286 63.2788 435.9286 82.1498 455.6106 82.1498 455.6106 86.7208 435.9286 86.7208 435.9286 105.9598 461.3606 105.9598 461.3606 110.5298 430.8426 110.5298"></polygon>
                <path d="M489.396,84.433 C495.662,84.433 499.642,80.378 499.642,73.891 C499.642,69.616 497.947,66.446 494.925,64.825 C493.376,64.013 491.535,63.572 487.554,63.572 L477.085,63.572 L477.085,84.433 L489.396,84.433 Z M472,59 L487.332,59 C492.64,59 495,59.517 497.062,60.402 C501.927,62.539 504.876,67.478 504.876,73.744 C504.876,80.746 500.896,86.128 495.072,87.749 L495.072,87.897 C495.072,87.897 495.587,88.561 496.4,89.961 L507.677,110.823 L501.855,110.823 L490.134,89.003 L477.085,89.003 L477.085,110.823 L472,110.823 L472,59 Z" id="Fill-23" fill="#FFFFFF"></path>
            </g>
            <path d="M534.5174,111 L534.5174,59.1889021 L549.846999,59.1889021 C555.153399,59.1889021 557.511799,59.7048021 559.575399,60.5892021 C564.439598,62.726502 567.387598,67.6644018 567.387598,73.9289015 C567.387598,80.9304012 563.407798,86.310501 557.585499,87.931901 L557.585499,88.0793009 C557.585499,88.0793009 558.101399,88.7426009 558.912099,90.1429009 L570.188198,111 L564.365898,111 L552.647599,89.1848009 L539.602699,89.1848009 L539.602699,111 L534.5174,111 Z M539.602699,84.6154011 L551.910599,84.6154011 C558.175099,84.6154011 562.154899,80.5619013 562.154899,74.0763015 C562.154899,69.8017017 560.459799,66.6326018 557.438099,65.0112019 C555.890399,64.2005019 554.047899,63.758302 550.068099,63.758302 L539.602699,63.758302 L539.602699,84.6154011 Z M577.263398,84.7628011 C577.263398,69.8754017 588.981697,58.3045022 603.647997,58.3045022 C618.314296,58.3045022 630.032596,69.8754017 630.032596,84.7628011 C630.032596,99.9450005 618.314296,111.8844 603.647997,111.8844 C588.981697,111.8844 577.263398,99.9450005 577.263398,84.7628011 Z M582.569798,84.7628011 C582.569798,97.4392006 591.929697,107.1676 603.647997,107.1676 C615.292596,107.1676 624.726196,97.4392006 624.726196,84.7628011 C624.726196,72.3812016 615.292596,63.021302 603.647997,63.021302 C591.929697,63.021302 582.569798,72.3812016 582.569798,84.7628011 Z M638.065895,84.7628011 C638.065895,99.8713005 648.973495,111.8844 664.303094,111.8844 C677.053194,111.8844 684.128393,103.8511 684.128393,103.8511 L681.180394,100.2398 C681.180394,100.2398 674.842194,107.1676 664.376794,107.1676 C652.068895,107.1676 643.372295,97.0707006 643.372295,84.6891011 C643.372295,72.4549016 652.068895,63.021302 664.229394,63.021302 C673.957794,63.021302 680.001194,68.7699017 680.001194,68.7699017 L682.728094,65.0112019 C682.728094,65.0112019 676.463594,58.3045022 664.081994,58.3045022 C649.268295,58.3045022 638.065895,69.7280017 638.065895,84.7628011 Z M695.183393,111 L700.268693,111 L700.268693,86.236801 L709.038992,86.236801 L723.852692,111 L729.822392,111 L713.313592,83.8047011 L713.313592,83.6573011 L728.790592,59.1889021 L722.968292,59.1889021 L709.038992,81.6674012 L700.268693,81.6674012 L700.268693,59.1889021 L695.183393,59.1889021 L695.183393,111 Z M739.477091,111 L744.562391,111 L744.562391,59.1889021 L739.477091,59.1889021 L739.477091,111 Z M759.59719,111 L790.108989,111 L790.108989,106.4306 L764.68249,106.4306 L764.68249,87.194901 L784.360389,87.194901 L784.360389,82.6255012 L764.68249,82.6255012 L764.68249,63.758302 L788.782389,63.758302 L788.782389,59.1889021 L759.59719,59.1889021 L759.59719,111 Z M797.847489,105.2514 C797.847489,105.2514 803.669789,111.8844 814.282588,111.8844 C824.010988,111.8844 829.980687,105.6199 829.980687,97.8814005 C829.980687,80.8567012 804.111989,84.3943011 804.111989,72.0864016 C804.111989,67.5170018 808.386588,63.168702 815.019588,63.168702 C821.799988,63.168702 826.369388,67.5907018 826.369388,67.5907018 L828.875188,63.316102 C828.875188,63.316102 824.010988,58.3045022 815.019588,58.3045022 C805.438588,58.3045022 798.879289,64.7901019 798.879289,72.2338016 C798.879289,88.3004009 824.747988,84.9839011 824.747988,98.0288005 C824.747988,103.63 820.104888,107.0202 814.429988,107.0202 C806.249288,107.0202 800.869189,101.3453 800.869189,101.3453 L797.847489,105.2514 Z" id="Rockies" fill="#FFFFFF" opacity="0.870000005"></path>
        </g>
    </g>
</svg>