<?xml version="1.0" encoding="UTF-8"?>
<svg width="112px" height="101px" viewBox="0 0 112 101" version="1.1" xmlns="http://www.w3.org/2000/svg" xmlns:xlink="http://www.w3.org/1999/xlink">
    <!-- Generator: Sketch 42 (36781) - http://www.bohemiancoding.com/sketch -->
    <title>what-we-do</title>
    <desc>Created with Sketch.</desc>
    <defs>
        <ellipse id="path-1" cx="73.92" cy="15.7657658" rx="6.72" ry="6.75675676"></ellipse>
        <mask id="mask-2" maskContentUnits="userSpaceOnUse" maskUnits="objectBoundingBox" x="0" y="0" width="13.44" height="13.5135135" fill="white">
            <use xlink:href="#path-1"></use>
        </mask>
    </defs>
    <g id="eu-rockies-office-hours" stroke="none" stroke-width="1" fill="none" fill-rule="evenodd">
        <g id="Artboard-Copy" transform="translate(-881.000000, -974.000000)">
            <g id="what-we-do" transform="translate(881.000000, 975.000000)">
                <g id="Group" fill-rule="nonzero">
                    <path d="M108.677333,15.3875 L100.215111,15.3875 L100.215111,10.7625 C100.215111,8.91924965 98.7275026,7.425 96.8924444,7.425 L88.4302222,7.425 L88.4302222,3.5375 C88.4302222,1.69424965 86.9426137,0.2 85.1075556,0.2 L26.8675556,0.2 C25.0324974,0.2 23.5448889,1.69424965 23.5448889,3.5375 L23.5448889,7.4375 L15.0826667,7.4375 C13.2476085,7.4375 11.76,8.93174965 11.76,10.775 L11.76,15.4 L3.32266667,15.4 C2.43928029,15.3999938 1.59225563,15.7533376 0.968775791,16.3819464 C0.345295953,17.0105552 -0.00330856321,17.8626762 -1.6263534e-14,18.75 L-1.6263534e-14,76.4375 C-1.95021916e-14,77.32266 0.350065662,78.1715662 0.973186535,78.7974689 C1.59630741,79.4233715 2.44144068,79.775 3.32266667,79.775 L11.7848889,79.775 L11.7848889,86.9 C11.7848889,88.7432504 13.2724974,90.2375 15.1075556,90.2375 L23.5697778,90.2375 L23.5697778,96.4875 C23.5697778,98.3307504 25.0573863,99.825 26.8924444,99.825 L85.1324444,99.825 C86.9675026,99.825 88.4551111,98.3307504 88.4551111,96.4875 L88.4551111,90.2375 L96.9173333,90.2375 C98.7523915,90.2375 100.24,88.7432504 100.24,86.9 L100.24,79.775 L108.702222,79.775 C110.527553,79.7612657 112.000051,78.2710312 112,76.4375 L112,18.75 C112.006633,17.8605163 111.659498,17.0051735 111.035657,16.3738533 C110.411816,15.7425332 109.562889,15.387475 108.677333,15.3875 Z M107.320889,75 L100.227556,75 L100.227556,20 L107.320889,20 L107.320889,75 Z M95.5484444,79.7 L95.5484444,85.45 L88.4551111,85.45 L88.4551111,12.1375 L95.5484444,12.1375 L95.5484444,79.7625 L95.5484444,79.7 Z M83.776,90.15 L83.776,95.025 L28.2364444,95.025 L28.2364444,52.35 L83.7635556,52.35 L83.7635556,90.2125 L83.776,90.15 Z M4.67911111,20.0875 L11.7724444,20.0875 L11.7724444,75 L4.67911111,75 L4.67911111,20.0875 Z M16.4515556,79.7625 L16.4515556,12.1375 L23.5448889,12.1375 L23.5448889,85.5125 L16.4515556,85.5125 L16.4515556,79.7625 Z M83.7635556,8.45 L83.7635556,12.375 L81.0755556,15.075 C80.9641576,14.0437612 80.6193618,13.0517891 80.0675556,12.175 L80.0675556,12.175 L82.4071111,9.825 L83.7635556,8.45 Z M71.9911111,47.65 L68.8551111,47.65 L71.9911111,44.5 L74.3306667,42.15 L76.6702222,39.8 L83.7635556,32.675 L83.7635556,36.5875 L76.6702222,43.75 L74.3306667,46.1 L72.7626667,47.675 L71.9911111,47.65 Z M62.5582222,47.65 L60.816,47.65 L62.5457778,45.9125 L64.8853333,43.5625 L71.9786667,36.4375 L74.3182222,34.0875 L76.6577778,31.7375 L83.7511111,24.6125 L83.7511111,28.5375 L76.6577778,35.6625 L74.3182222,38.0125 L71.9786667,40.3625 L64.8977778,47.5 L64.7235556,47.675 L62.5582222,47.65 Z M83.7137778,40.75 L83.7137778,44.6625 L80.7395556,47.65 L76.8942222,47.65 L83.7137778,40.75 Z M83.7137778,20.0875 L83.7137778,20.4375 L76.6204444,27.5625 L74.2808889,29.9125 L71.9413333,32.2625 L64.848,39.3875 L62.5582222,41.75 L60.2186667,44.1 L56.6844444,47.65 L52.7768889,47.65 L60.2435556,40.15 L62.5831111,37.8 L64.9226667,35.45 L72.016,28.325 L74.3555556,25.975 L76.6951111,23.625 L80.2417778,20.0625 L82.5813333,17.7125 L83.8257778,16.4625 L83.8257778,20.025 L83.7137778,20.0875 Z M47.0524444,47.5875 L44.8,47.5875 L47.1644444,45.2125 L49.504,42.8625 L51.8435556,40.5125 L60.2684444,32.05 L62.608,29.7 L64.9475556,27.35 L70.7093333,21.5625 C71.5826092,22.1159712 72.5699834,22.46224 73.5964444,22.575 L72.0408889,24.1375 L64.9475556,31.2625 L62.608,33.6125 L60.2684444,35.9625 L51.8435556,44.425 L49.504,46.775 L48.6951111,47.5875 L47.0524444,47.5875 Z M78.1635556,15.325 C78.1735488,15.4831742 78.1735488,15.6418258 78.1635556,15.8 C78.1591823,16.4573653 77.9878493,17.1027324 77.6657778,17.675 C77.4044704,18.1616449 77.0440561,18.5875546 76.608,18.925 C75.9381778,19.4466267 75.115979,19.7321667 74.2684444,19.7375 L74.2684444,19.7375 C73.7423807,19.7389094 73.2215533,19.6325776 72.7377778,19.425 C71.9770451,19.0634564 71.3466218,18.4738903 70.9333333,17.7375 C70.5847868,17.1764262 70.4114203,16.5233993 70.4355556,15.8625 C70.4258224,15.7043176 70.4258224,15.5456824 70.4355556,15.3875 C70.6180815,13.8636994 71.6760721,12.5904017 73.136,12.1375 C73.5092597,12.0115148 73.8996181,11.9440565 74.2933333,11.9375 L74.2933333,11.9375 C74.6870672,11.9438571 75.0774558,12.0113205 75.4506667,12.1375 C75.5751111,12.1375 75.6995556,12.2 75.8115556,12.25 C76.1048788,12.3818819 76.3807666,12.5498331 76.6328889,12.75 C77.176018,13.1583822 77.604723,13.700962 77.8773333,14.325 C78.0311488,14.6623772 78.1359223,15.0201976 78.1884444,15.3875 L78.1635556,15.325 Z M62.5333333,21.575 L64.1137778,19.9875 L64.8728889,19.225 L66.4533333,17.6375 L67.5608889,16.525 C67.6763693,17.5592107 68.0207842,18.554358 68.5688889,19.4375 L68.0213333,19.9875 L64.8977778,23.25 L62.5582222,25.6 L60.2186667,27.95 L51.7937778,36.4125 L49.4417778,38.75 L47.1022222,41.1 L40.5937778,47.6375 L36.6986667,47.6375 L37.6693333,46.6625 L40.0088889,44.3125 L47.1022222,37.1875 L49.4417778,34.8375 L51.7937778,32.5 L60.2186667,24.0375 L62.5333333,21.575 Z M80.64,7.425 L78.3004444,9.775 L78.0017778,10.075 C77.8275556,9.9625 77.6284444,9.8625 77.4417778,9.775 C76.7143358,9.40289227 75.9259893,9.16575594 75.1146667,9.075 L75.7493333,8.4375 L76.7573333,7.425 L79.2462222,4.925 L83.1413333,4.925 L80.64,7.425 Z M72.6008889,7.425 L70.2613333,9.775 L67.9217778,12.125 L64.7111111,15.3875 L63.84,16.2625 L62.3715556,17.7375 L62.1724444,17.9375 L60.032,20.0875 L51.8186667,28.3375 L49.4791111,30.6875 L47.1395556,33.0375 L40.0462222,40.1625 L37.6693333,42.5 L35.3297778,44.85 L32.5671111,47.6375 L28.6222222,47.6375 L35.2924444,40.9375 L37.632,38.5875 L40.0088889,36.25 L47.1022222,29.125 L49.4417778,26.775 L51.7813333,24.425 L56.0871111,20.1 L58.4888889,17.7375 L60.8284444,15.3875 L64.064,12.1375 L66.4035556,9.7875 L68.7431111,7.4375 L71.232,4.9375 L75.1271111,4.9375 L72.6008889,7.425 Z M64.5617778,7.425 L62.2222222,9.7875 L59.8826667,12.1375 L56.6471111,15.3875 L54.3075556,17.7375 L51.968,20.0875 L51.7937778,20.2625 L49.4542222,22.6125 L47.1022222,25 L40.0088889,32.125 L37.6693333,34.475 L35.3297778,36.825 L28.2364444,43.95 L28.2364444,40 L35.3297778,32.875 L37.6693333,30.525 L40.0088889,28.175 L47.1022222,21.05 L48.048,20.1 L49.4417778,18.7 L50.3751111,17.7625 L50.3751111,17.7625 L52.7146667,15.4125 L55.9502222,12.1625 L58.2897778,9.8125 L60.6293333,7.4625 L63.1182222,4.9625 L67.0755556,4.9625 L64.5617778,7.425 Z M56.5226667,7.425 L54.1831111,9.775 L51.8435556,12.125 L48.608,15.375 L46.2684444,17.725 L43.9288889,20.075 L40.0213333,24 L37.6817778,26.35 L35.3297778,28.75 L28.2364444,35.875 L28.2364444,31.925 L35.3297778,24.8 L37.6693333,22.5 L40.0088889,20.15 L40.0088889,20.15 L42.3111111,17.7375 L44.6506667,15.3875 L47.8862222,12.1375 L50.2257778,9.7875 L52.5653333,7.4375 L55.0542222,4.9375 L58.9617778,4.9375 L56.5226667,7.425 Z M48.4835556,7.425 L46.144,9.775 L43.8044444,12.1375 L40.5688889,15.3875 L40.0213333,15.9375 L38.2293333,17.7375 L37.6817778,18.2875 L35.8897778,20.0875 L35.3422222,20.6375 L28.2488889,27.7625 L28.2488889,23.85 L31.9822222,20.1 L34.3217778,17.75 L35.3297778,16.7375 L36.6613333,15.4 L37.6693333,14.3875 L39.8968889,12.15 L42.2364444,9.8 L44.576,7.45 L47.0648889,4.95 L51.0222222,4.95 L48.4835556,7.425 Z M40.4444444,7.425 L38.1048889,9.775 L35.7653333,12.125 L35.3297778,12.5625 L32.5297778,15.375 L30.1902222,17.725 L28.2364444,19.6875 L28.2364444,15.775 L28.6222222,15.3875 L31.8577778,12.1375 L34.1973333,9.7875 L36.5368889,7.4375 L39.0257778,4.9375 L42.9333333,4.9375 L40.4444444,7.425 Z M32.4053333,7.425 L30.0657778,9.775 L28.2364444,11.6125 L28.2364444,7.7 L28.4977778,7.4375 L30.9866667,4.9375 L34.8942222,4.9375 L32.4053333,7.425 Z" id="Shape" fill="#85D7CC"></path>
                    <path d="M76.6702222,59.0402027 C76.5831906,59.0349177 76.4959206,59.0349177 76.4088889,59.0402027 L35.5911111,59.0402027 C35.5040794,59.0349177 35.4168094,59.0349177 35.3297778,59.0402027 C34.1540276,59.1614585 33.2580836,60.1530133 33.2515556,61.3402027 L33.2515556,69.5777027 C33.2580836,70.7648921 34.1540276,71.7564469 35.3297778,71.8777027 C35.4168094,71.8829877 35.5040794,71.8829877 35.5911111,71.8777027 L76.4088889,71.8777027 C76.4959206,71.8829877 76.5831906,71.8829877 76.6702222,71.8777027 C77.8459724,71.7564469 78.7419164,70.7648921 78.7484444,69.5777027 L78.7484444,61.3402027 C78.7419164,60.1530133 77.8459724,59.1614585 76.6702222,59.0402027 L76.6702222,59.0402027 Z M74.0693333,67.2277027 L37.9804444,67.2277027 L37.9804444,63.7027027 L74.0693333,63.7027027 L74.0693333,67.2277027 Z" id="Shape" fill="#FFFFFF"></path>
                    <path d="M76.6702222,74.5152027 C76.5831906,74.5099177 76.4959206,74.5099177 76.4088889,74.5152027 L35.5911111,74.5152027 C35.5040794,74.5099177 35.4168094,74.5099177 35.3297778,74.5152027 C34.1540276,74.6364585 33.2580836,75.6280133 33.2515556,76.8152027 L33.2515556,85.0527027 C33.2580836,86.2398921 34.1540276,87.2314469 35.3297778,87.3527027 C35.4168076,87.3580493 35.5040813,87.3580493 35.5911111,87.3527027 L76.4088889,87.3527027 C76.4959187,87.3580493 76.5831924,87.3580493 76.6702222,87.3527027 C77.8459724,87.2314469 78.7419164,86.2398921 78.7484444,85.0527027 L78.7484444,76.8152027 C78.7419164,75.6280133 77.8459724,74.6364585 76.6702222,74.5152027 L76.6702222,74.5152027 Z M74.0693333,82.7027027 L37.9804444,82.7027027 L37.9804444,79.1652027 L74.0693333,79.1652027 L74.0693333,82.7027027 Z" id="Shape" fill="#FFFFFF"></path>
                </g>
                <use id="Oval-3" stroke="#FFFFFF" mask="url(#mask-2)" stroke-width="5.39999986" xlink:href="#path-1"></use>
                <rect id="Rectangle-7" stroke="#FFFFFF" stroke-width="4.49999988" x="25.984" y="1.8018018" width="60.032" height="94.5945946" rx="1.79999995"></rect>
                <path d="M27.328,50 L84.7838908,50" id="Line" stroke="#FFFFFF" stroke-width="4.49999988" stroke-linecap="square"></path>
            </g>
        </g>
    </g>
</svg>