<?xml version="1.0" encoding="UTF-8"?>
<svg width="125px" height="74px" viewBox="0 0 125 74" version="1.1" xmlns="http://www.w3.org/2000/svg" xmlns:xlink="http://www.w3.org/1999/xlink">
    <!-- Generator: Sketch 42 (36781) - http://www.bohemiancoding.com/sketch -->
    <title>Group 4</title>
    <desc>Created with Sketch.</desc>
    <defs></defs>
    <g id="eu-rockies-office-hours" stroke="none" stroke-width="1" fill="none" fill-rule="evenodd">
        <g id="Artboard-Copy" transform="translate(-463.000000, -988.000000)" fill-rule="nonzero" fill="#FFFFFF">
            <g id="Group-4" transform="translate(463.000000, 988.111670)">
                <path d="M0,73.3290803 L13.5103438,73.3290803 L31.3834723,44.5749079 C30.2670567,44.5881836 29.1620719,44.5132709 28.0723283,44.6697342 C23.3837637,45.37619 18.9266743,46.9778058 14.8248947,48.9976056 L0,73.3290803 Z" id="Shape" opacity="0.5"></path>
                <path d="M67.8603528,27.4996207 C58.209835,27.760393 49.1575332,30.4278562 41.2664179,34.869519 L35.1556616,44.8262783 C35.1642348,44.8262783 35.1556616,44.9211045 35.1556616,44.9296389 L18.0988883,73.055113 L39.8594675,73.055113 L50.3834947,55.5691473 C50.4054039,55.5691473 50.3834947,55.5691473 50.478752,55.6146639 L67.8603528,27.4996207 Z" id="Shape" opacity="0.699999988"></path>
                <path d="M124.983302,0 C122.974325,0.0549992414 120.982495,0.139394629 119.008764,0.322409346 C108.648579,1.64428766 98.7180048,4.31554392 89.4018401,8.19299044 C86.9480119,9.31383705 84.5513381,10.6063192 82.2203918,11.9310423 L72.2650507,28.1956456 C72.2793393,28.1956456 72.2650507,28.2904719 72.2650507,28.2999545 L44.7709342,73.4145046 L71.7744755,73.4145046 L95.5945177,40.4889243 C95.5859445,40.4794417 95.5773713,40.4215976 95.5678456,40.412115 L124.983302,0 Z" id="Shape"></path>
            </g>
        </g>
    </g>
</svg>