<?xml version="1.0" encoding="UTF-8"?>
<svg width="409px" height="374px" viewBox="0 0 409 374" version="1.1" xmlns="http://www.w3.org/2000/svg" xmlns:xlink="http://www.w3.org/1999/xlink">
    <!-- Generator: Sketch 42 (36781) - http://www.bohemiancoding.com/sketch -->
    <title>logo-group</title>
    <desc>Created with Sketch.</desc>
    <defs>
        <polygon id="path-1" points="0.399391955 31.7661844 41.8350261 31.7661844 41.8350261 0.00231043397 0.399391955 0.00231043397 0.399391955 31.7661844"></polygon>
        <polygon id="path-3" points="43.2309335 0.128980465 0 0.128980465 0 44.4171139 43.2309335 44.4171139 43.2309335 0.128980465"></polygon>
        <polygon id="path-5" points="32.4801498 0.249827634 0.0264356801 0.249827634 0.0264356801 65.0512725 32.4801498 65.0512725 32.4801498 0.249827634"></polygon>
        <polygon id="path-7" points="27.5908743 17.9200901 49.5685379 17.9200901 49.5685379 0.000204798689 27.5908743 0.000204798689 27.5908743 17.9200901"></polygon>
        <polygon id="path-9" points="99.4698864 15.0117439 99.4698864 2.86308567 6.25154066e-20 2.86308567 0 15.0117439 99.4698864 15.0117439"></polygon>
        <polygon id="path-11" points="0.0163582714 63.1192672 0.0163582714 0 90.2638513 0 90.2638513 31.5596336 90.2638513 63.1192672 0.0163582714 63.1192672"></polygon>
        <polygon id="path-13" points="0 43.9314179 83.9562624 43.9314179 83.9562624 0 0 0"></polygon>
    </defs>
    <g id="eu-rockies-office-hours" stroke="none" stroke-width="1" fill="none" fill-rule="evenodd">
        <g id="Artboard-Copy-2" transform="translate(-385.000000, -944.000000)">
            <g id="logo-group" transform="translate(385.000000, 944.000000)">
                <g id="Page-1" transform="translate(180.000000, 107.000000)">
                    <g id="Group-3" transform="translate(30.748739, 12.683734)">
                        <mask id="mask-2" fill="white">
                            <use xlink:href="#path-1"></use>
                        </mask>
                        <g id="Clip-2"></g>
                        <path d="M21.6706863,24.5256823 C16.8977987,24.5256823 13.0294365,20.6571226 13.0294365,15.8848453 C13.0294365,11.111714 16.8977987,7.24315417 21.6706863,7.24315417 C26.4435739,7.24315417 30.3119361,11.111714 30.3119361,15.8848453 C30.3119361,20.6571226 26.4435739,24.5256823 21.6706863,24.5256823 L21.6706863,24.5256823 Z M29.8917034,0.796693432 L29.8917034,2.04208097 C27.0252376,0.745442916 23.7171858,0.00231043397 20.1921845,0.00231043397 C9.26100773,0.00231043397 0.399391955,7.11331953 0.399391955,15.8848453 C0.399391955,24.655517 9.26100773,31.7665261 20.1921845,31.7665261 C23.7171858,31.7665261 27.0252376,31.0225394 29.8917034,29.7267555 L29.8917034,30.9234551 L41.8350261,30.9234551 L41.8350261,0.796693432 L29.8917034,0.796693432 Z" id="Fill-1" fill="#008A7A" mask="url(#mask-2)"></path>
                    </g>
                    <g id="Group-6" transform="translate(0.000000, 0.032804)">
                        <mask id="mask-4" fill="white">
                            <use xlink:href="#path-3"></use>
                        </mask>
                        <g id="Clip-5"></g>
                        <path d="M23.4381409,37.1766118 C18.6652533,37.1766118 14.7968911,33.308052 14.7968911,28.5357748 C14.7968911,23.7626434 18.6652533,19.8940836 23.4381409,19.8940836 C28.2101744,19.8940836 32.0793908,23.7626434 32.0793908,28.5357748 C32.0793908,33.308052 28.2101744,37.1766118 23.4381409,37.1766118 M23.4381409,12.6532399 C19.3135392,12.6532399 15.483613,13.6671459 12.3139305,15.3985592 L12.3139305,0.12846796 L-8.5413164e-05,0.12846796 L-8.5413164e-05,43.6264893 L12.3139305,43.6264893 L12.3139305,41.6721362 C15.483613,43.4035495 19.3135392,44.4174556 23.4381409,44.4174556 C34.3684636,44.4174556 43.2309335,37.3064465 43.2309335,28.5357748 C43.2309335,19.764249 34.3684636,12.6532399 23.4381409,12.6532399" id="Fill-4" fill="#006F63" mask="url(#mask-4)"></path>
                    </g>
                    <path d="M23.0194456,4.4546136 L23.0194456,6.41665418 L24.3903269,6.41665418 C24.9241592,6.41665418 25.2632494,6.40127903 25.4067435,6.37138289 C25.6271095,6.33123666 25.8064772,6.23386068 25.9448465,6.07840078 C26.0832158,5.92379505 26.1524005,5.71623046 26.1524005,5.45570701 C26.1524005,5.23532979 26.0985902,5.04826541 25.9918237,4.89536803 C25.8850573,4.74161649 25.7313136,4.62971953 25.5288844,4.55967715 C25.3273093,4.48963478 24.8891398,4.4546136 24.2152299,4.4546136 L23.0194456,4.4546136 Z M23.0194456,1.53675088 L23.0194456,3.23314296 L23.9905933,3.23314296 C24.5671321,3.23314296 24.9258674,3.22545539 25.065945,3.20837188 C25.3196221,3.17847575 25.5194889,3.09049569 25.6646913,2.9452859 C25.8098937,2.8000761 25.8824949,2.60959502 25.8824949,2.37213429 C25.8824949,2.14577785 25.8192891,1.96127599 25.6945859,1.8194829 C25.5690286,1.6776898 25.383682,1.5914181 25.136838,1.56152197 C24.9899273,1.54529264 24.5671321,1.53675088 23.8701607,1.53675088 L23.0194456,1.53675088 Z M21.5383813,0.315280252 L24.4706153,0.315280252 C25.0514248,0.315280252 25.4844695,0.340051335 25.7697495,0.387885149 C26.0550295,0.43657314 26.3104148,0.537365821 26.5350514,0.691117369 C26.7605422,0.844014742 26.9484512,1.04901681 27.0979242,1.30441521 C27.2482514,1.55895944 27.323415,1.84510815 27.323415,2.16200718 C27.323415,2.50623981 27.2311687,2.82143048 27.0458222,3.10843337 C26.8604756,3.39543626 26.6093609,3.61068843 26.2924781,3.75418988 C26.7391889,3.88402452 27.083404,4.10611009 27.323415,4.41959241 C27.5634259,4.73307473 27.6838585,5.10207845 27.6838585,5.52574938 C27.6838585,5.85973191 27.6061325,6.18346434 27.4506806,6.49950918 C27.2960827,6.81469986 27.0842581,7.06668156 26.8152066,7.25460012 C26.5470093,7.44337285 26.2156062,7.55954069 25.8218515,7.60310363 C25.5750075,7.62958306 24.9796777,7.64581239 24.0350081,7.65264579 L21.5383813,7.65264579 L21.5383813,0.315280252 Z" id="Fill-7" fill="#006F63"></path>
                    <path d="M40.6234404,4.74990199 L39.6121485,2.02679123 L38.6213558,4.74990199 L40.6234404,4.74990199 Z M43.3506827,7.65238954 L41.7397904,7.65238954 L41.0991917,5.9858936 L38.1661037,5.9858936 L37.5605243,7.65238954 L35.9889221,7.65238954 L38.8468466,0.315878174 L40.413324,0.315878174 L43.3506827,7.65238954 Z" id="Fill-9" fill="#006F63"></path>
                    <path d="M53.4228593,3.41866983 L54.5187102,3.41866983 C55.2293477,3.41866983 55.6734961,3.3887737 55.8503014,3.32898143 C56.0271066,3.26833498 56.165476,3.16497978 56.2654094,3.01806163 C56.3653428,2.87114349 56.4157365,2.68834998 56.4157365,2.46797276 C56.4157365,2.22111611 56.3499684,2.02123909 56.217578,1.87005007 C56.0860417,1.71800688 55.899841,1.62148507 55.65983,1.58219301 C55.5402516,1.5651095 55.179808,1.55656775 54.5793535,1.55656775 L53.4228593,1.55656775 L53.4228593,3.41866983 Z M51.941795,7.65281663 L51.941795,0.315451087 L55.0593755,0.315451087 C55.8434683,0.315451087 56.4131741,0.381222582 56.7684929,0.513619749 C57.1238117,0.64516274 57.4082375,0.879206763 57.6217704,1.21660599 C57.8353033,1.55315105 57.9420698,1.93923827 57.9420698,2.37230513 C57.9420698,2.92324818 57.7806389,3.37766942 57.456923,3.73642303 C57.1332071,4.09517664 56.6489145,4.32153309 56.0048992,4.41463819 C56.3251986,4.60170258 56.5899794,4.80670464 56.7983875,5.03049856 C57.0067956,5.2534383 57.2878049,5.6506298 57.6414154,6.22121888 L58.5373995,7.65281663 L56.7659305,7.65281663 L55.6948494,6.05636306 C55.3147608,5.48577398 55.0542507,5.12616619 54.9141731,4.97753969 C54.7740955,4.8289132 54.6254766,4.72726634 54.4691705,4.67259912 C54.3120103,4.61707773 54.063458,4.58974412 53.7235136,4.58974412 L53.4228593,4.58974412 L53.4228593,7.65281663 L51.941795,7.65281663 Z" id="Fill-11" fill="#006F63"></path>
                    <polygon id="Fill-13" fill="#006F63" points="68.7905666 7.65281663 68.7905666 1.55656775 66.613385 1.55656775 66.613385 0.315451087 72.4436876 0.315451087 72.4436876 1.55656775 70.2716308 1.55656775 70.2716308 7.65281663"></polygon>
                </g>
                <g id="Group" transform="translate(164.059831, 15.090430)" fill="#006F63">
                    <path d="M25.9809057,12.3572685 L13.5602222,12.3572685 L13.5602222,16.0355869 L22.4001537,16.0355869 C21.9687866,21.1934145 17.7056767,23.3930826 13.6817175,23.3930826 C8.53336647,23.3930826 4.04091954,19.3155469 4.04091954,13.6004471 C4.04091954,8.03309425 8.32344303,3.74542724 13.6930243,3.74542724 C17.8357055,3.74542724 20.2769189,6.40379797 20.2769189,6.40379797 L22.8353608,3.73683731 C22.8353608,3.73683731 19.551467,0.0568009579 13.5622489,0.0568009579 C5.93556391,0.0566935836 0.035520582,6.536083 0.035520582,13.5347341 C0.035520582,20.3926176 5.58558485,27.0797761 13.7565987,27.0797761 C20.9431698,27.0797761 26.203736,22.1241341 26.203736,14.7959516 C26.203736,13.2498703 25.9806923,12.3563021 25.9806923,12.3563021 L25.9809057,12.3572685" id="Fill-1"></path>
                    <path d="M36.4948913,9.69352906 C31.4420085,9.69352906 27.8209358,13.6699182 27.8209358,18.3075178 C27.8209358,23.0137295 31.3332067,27.0639921 36.5541989,27.0639921 C41.2805697,27.0639921 45.1527398,23.4276571 45.1527398,18.4086643 C45.1527398,12.6560909 40.6485593,9.69352906 36.4948913,9.69352906 Z M36.5451321,13.1050225 C39.0298661,13.1050225 41.3844647,15.127201 41.3844647,18.3856862 C41.3844647,21.5750224 39.0398929,23.6547535 36.5337186,23.6547535 C33.7799668,23.6547535 31.6075578,21.4346843 31.6075578,18.3603459 C31.6075578,15.3519353 33.7529797,13.1050225 36.5451321,13.1050225 L36.5451321,13.1050225 Z" id="Fill-2"></path>
                    <path d="M55.2526386,9.69352906 C50.1998625,9.69352906 46.5787898,13.6699182 46.5787898,18.3075178 C46.5787898,23.0137295 50.0910607,27.0639921 55.3120529,27.0639921 C60.0384236,27.0639921 63.9105938,23.4276571 63.9105938,18.4086643 C63.9105938,12.6560909 59.4064133,9.69352906 55.2526386,9.69352906 Z M55.3029861,13.1050225 C57.7877201,13.1050225 60.1423187,15.127201 60.1423187,18.3856862 C60.1423187,21.5750224 57.7977469,23.6547535 55.2915725,23.6547535 C52.5378208,23.6547535 50.3654118,21.4346843 50.3654118,18.3603459 C50.3654118,15.3519353 52.5108337,13.1050225 55.3029861,13.1050225 L55.3029861,13.1050225 Z" id="Fill-3"></path>
                    <path d="M73.7559817,9.70265587 C69.1180391,9.70265587 65.4725393,13.7915732 65.4725393,18.3809618 C65.4725393,23.6087974 69.6989553,27.0754812 73.6759804,27.0754812 C76.135114,27.0754812 77.4426555,26.0928997 78.4080046,24.965041 L78.4080046,26.6776597 C78.4080046,29.6742592 76.600615,31.4685896 73.8724636,31.4685896 C71.2369005,31.4685896 69.9149588,29.496018 69.4555379,28.3766419 L66.1395369,29.7720771 C67.3159829,32.2759363 69.6841283,34.8870624 73.8998774,34.8870624 C78.511153,34.8870624 82.0256639,31.96337 82.0256639,25.8316583 L82.0256639,10.0100682 L78.4082179,10.0100682 L78.4082179,11.6961655 C77.2957731,10.4894941 75.7746815,9.70287062 73.7559817,9.70287062 L73.7559817,9.70265587 Z M74.0916672,13.1072774 C76.3655178,13.1072774 78.7003827,15.0617028 78.7003827,18.3994301 C78.7003827,21.7919183 76.3704246,23.6616255 74.0413197,23.6616255 C71.5688526,23.6616255 69.2682282,21.6407354 69.2682282,18.4316424 C69.2682282,15.0971363 71.6576007,13.1072774 74.0915606,13.1072774 L74.0916672,13.1072774 L74.0916672,13.1072774 Z" id="Fill-4"></path>
                    <path d="M97.7902955,9.68193265 C93.4155038,9.68193265 89.7422703,13.1856605 89.7422703,18.3557288 C89.7422703,23.8263375 93.836524,27.0707567 98.210569,27.0707567 C101.861082,27.0707567 104.101652,25.0603893 105.438847,23.2591869 L102.456185,21.2614897 C101.682199,22.4706307 100.388205,23.6523913 98.2288093,23.6523913 C95.8031696,23.6523913 94.6879513,22.3152602 93.9969533,21.0201125 L105.56621,16.1878435 L104.96556,14.771685 C103.847995,11.9984239 101.240805,9.68246952 97.7907222,9.68246952 L97.7902955,9.68193265 Z M97.941018,13.022237 C99.5174705,13.022237 100.651996,13.8658762 101.133817,14.8774486 L93.407717,18.1280955 C93.0745916,15.6114587 95.4431637,13.022237 97.941018,13.022237 L97.941018,13.022237 Z" id="Fill-5"></path>
                    <polygon id="Fill-6" points="84.4399968 26.5551457 87.9837348 26.5551457 87.9837348 0.954986237 84.4399968 0.954986237"></polygon>
                </g>
                <g id="23andme" transform="translate(6.600108, 0.000000)">
                    <g id="Group-5">
                        <mask id="mask-6" fill="white">
                            <use xlink:href="#path-5"></use>
                        </mask>
                        <g id="Clip-2"></g>
                        <path d="M0.530035386,48.0132025 C-0.742842611,50.6180487 0.355559897,53.7535602 2.98282591,55.016238 C5.61009191,56.2776055 8.77312104,55.1896323 10.045999,52.5847862 L12.1119474,48.3582442 L7.59056495,33.5712435 L0.530035386,48.0132025" id="Fill-1" fill="#008A7A" mask="url(#mask-6)"></path>
                        <path d="M29.4973725,0.775688599 C26.8701065,-0.486989182 23.7070773,0.601857482 22.4341993,3.20626689 L14.3876189,19.6665012 L18.909442,34.4539387 L31.950163,7.77741378 C33.2226004,5.17344113 32.1255197,2.03792962 29.4973725,0.775688599" id="Fill-3" fill="#008A7A" mask="url(#mask-6)"></path>
                        <path d="M16.0869925,61.3558326 C16.9346967,64.1249011 19.8862404,65.6902547 22.6804917,64.8507989 C25.4743025,64.0113431 27.0533938,61.0837301 26.2065709,58.3150983 L18.909442,34.4539387 L12.1119474,48.3582442 L16.0869925,61.3558326" id="Fill-4" fill="#006F63" mask="url(#mask-6)"></path>
                    </g>
                    <path d="M11.635224,10.6652815 C10.7875199,7.89533941 7.83553558,6.33042261 5.0408436,7.17031516 C2.24703281,8.00977095 0.668382112,10.9360737 1.51520506,13.7060157 L7.59056495,33.5712435 L14.3876189,19.6665012 L11.635224,10.6652815" id="Fill-6" fill="#006F62"></path>
                    <polyline id="Fill-7" fill="#004E45" points="7.59056495 33.5712435 12.1119474 48.3582442 18.909442 34.4539387 14.3876189 19.6665012 7.59056495 33.5712435"></polyline>
                    <path d="M25.7078177,31.0253601 C25.7078177,27.2412576 28.5003067,26.9136864 29.5414319,26.9136864 C31.7889053,26.9136864 33.5737543,28.2239712 33.5737543,30.5829206 C33.5737543,32.5815417 32.2682723,33.5974492 31.1280133,34.3670231 C29.5749171,35.4484448 28.7651041,35.9725588 28.5003067,36.5128329 L33.5900563,36.5128329 L33.5900563,38.5446478 L25.5756393,38.5446478 C25.6580305,37.1845722 25.7576049,35.7598559 28.3020391,33.9250204 C30.4173341,32.4011592 31.2601917,31.811531 31.2601917,30.5012462 C31.2601917,29.7312355 30.7640821,28.8467933 29.6405657,28.8467933 C28.0213803,28.8467933 27.9715931,30.173675 27.9552911,31.0253601 L25.7078177,31.0253601" id="Fill-8" fill="#006F62"></path>
                    <path d="M37.8523692,31.811531 L38.2154192,31.811531 C38.910237,31.811531 40.1822338,31.7460168 40.1822338,30.2391893 C40.1822338,29.8133467 39.9839662,28.7485219 38.7110882,28.7485219 C37.125388,28.7485219 37.125388,30.2391893 37.125388,30.6484349 L34.9770484,30.6484349 C34.9770484,28.469868 36.2164412,26.9136864 38.8600092,26.9136864 C40.4302886,26.9136864 42.4957964,27.6998573 42.4957964,30.1570781 C42.4957964,31.3367712 41.7525132,32.073588 41.0911806,32.3688388 L41.0911806,32.4011592 C41.5044584,32.5160275 42.8588464,33.1222526 42.8588464,35.1042767 C42.8588464,37.2994405 41.2229184,38.8556221 38.8600092,38.8556221 C37.7532354,38.8556221 34.7787808,38.6097253 34.7787808,34.9732482 L37.0425562,34.9732482 L37.0258136,34.9898452 C37.0258136,35.6122304 37.1914772,37.0207866 38.7445734,37.0207866 C39.6698222,37.0207866 40.4796352,36.3988381 40.4796352,35.1042767 C40.4796352,33.515338 38.926539,33.4498238 37.8523692,33.4498238 L37.8523692,31.811531" id="Fill-9" fill="#006F62"></path>
                    <path d="M49.0456767,34.3019456 C48.8143645,34.4818914 48.4341313,34.6295168 47.4758379,34.7767055 C46.6166783,34.9243309 45.9055585,35.1370338 45.9055585,36.0874271 C45.9055585,36.8901949 46.5338465,37.1356549 46.9797283,37.1356549 C48.0045515,37.1356549 49.0456767,36.4805125 49.0456767,35.4156877 L49.0456767,34.3019456 Z M51.3094521,36.8404041 C51.3094521,37.8729085 51.5403237,38.1022083 51.8218637,38.2004797 L51.8218637,38.5446478 L49.3263355,38.5446478 C49.1941571,38.1349654 49.1611125,38.0035002 49.1117659,37.5121434 C48.5830523,38.053291 47.8393285,38.7735109 46.2694897,38.7735109 C44.9472651,38.7735109 43.5924365,38.0366941 43.5924365,36.2346157 C43.5924365,34.5308087 44.6829083,33.6629634 46.1536133,33.4498238 L48.2358637,33.1388495 C48.5993543,33.0894955 49.0456767,32.94187 49.0456767,32.4505132 C49.0456767,31.4839598 48.1199873,31.4346058 47.5251845,31.4346058 C46.3686235,31.4346058 46.1699153,32.1391022 46.1042667,32.647056 L43.8730953,32.647056 C44.1374521,29.9771323 46.0046923,29.600207 47.8062839,29.600207 C49.0456767,29.600207 51.3094521,29.9771323 51.3094521,32.122942 L51.3094521,36.8404041 L51.3094521,36.8404041 Z" id="Fill-10" fill="#006F62"></path>
                    <path d="M60.8989951,38.5446478 L58.5849919,38.5446478 L58.5849919,33.2537178 C58.5849919,32.6142988 58.5523879,31.5333139 57.0816829,31.5333139 C56.0564191,31.5333139 55.2637893,32.2212134 55.2637893,33.5480951 L55.2637893,38.5446478 L52.9502267,38.5446478 L52.9502267,29.8295069 L55.1642149,29.8295069 L55.1642149,31.1070346 L55.1972595,31.1070346 C55.5114035,30.5829206 56.1722955,29.600207 57.8412681,29.600207 C59.5600279,29.600207 60.8989951,30.5995176 60.8989951,32.5160275 L60.8989951,38.5446478" id="Fill-11" fill="#006F62"></path>
                    <path d="M65.7472988,36.8901949 C67.2180038,36.8901949 67.7965046,35.6777447 67.7965046,34.3836201 C67.7965046,32.9912241 67.3999694,31.5822312 65.8129474,31.5822312 C64.3422424,31.5822312 63.8465734,32.8763558 63.8465734,34.2525916 C63.8465734,35.2846592 64.2598512,36.8901949 65.7472988,36.8901949 Z M70.0104928,38.5446478 L67.7467174,38.5446478 L67.7467174,37.4470659 L67.7141134,37.4470659 C67.1519146,38.4297795 66.1270914,38.7735109 65.168798,38.7735109 C62.5573934,38.7735109 61.4673622,36.4805125 61.4673622,34.088806 C61.4673622,31.0742774 63.1856814,29.600207 65.1194514,29.600207 C66.6064584,29.600207 67.300395,30.4029749 67.6638856,30.9598459 L67.6969302,30.9598459 L67.6969302,26.782658 L70.0104928,26.782658 L70.0104928,38.5446478 L70.0104928,38.5446478 Z" id="Fill-12" fill="#006F62"></path>
                    <polyline id="Fill-13" fill="#006F62" points="84.2403788 38.5446478 81.7637962 38.5446478 81.7637962 28.7157648 81.728108 28.7157648 79.3572681 38.5446478 76.757319 38.5446478 74.439791 28.7157648 74.4041029 28.7157648 74.4041029 38.5446478 71.9275202 38.5446478 71.9275202 26.782658 75.8016691 26.782658 78.1020139 36.0546699 78.1368209 36.0546699 80.4010369 26.782658 84.2403788 26.782658 84.2403788 38.5446478"></polyline>
                    <path d="M91.9076072,33.3187953 C91.7754288,31.9098024 90.866482,31.4839598 90.1227582,31.4839598 C89.0318458,31.4839598 88.4537856,32.1718593 88.3216072,33.3187953 L91.9076072,33.3187953 Z M94.1876847,35.9887189 C93.5765799,38.0856114 91.8247755,38.7735109 90.3210258,38.7735109 C87.8422402,38.7735109 85.9419554,37.5942546 85.9419554,34.0066948 C85.9419554,32.958467 86.3058866,29.600207 90.1558028,29.600207 C91.8908647,29.600207 94.2872591,30.419135 94.2872591,34.400217 L94.2872591,34.8094626 L88.255518,34.8094626 C88.3216072,35.464605 88.4537856,36.9391122 90.3210258,36.9391122 C90.9656158,36.9391122 91.6265079,36.611541 91.8080329,35.9887189 L94.1876847,35.9887189 L94.1876847,35.9887189 Z" id="Fill-14" fill="#006F62"></path>
                </g>
                <g id="Group-7" transform="translate(318.457462, 203.754940)">
                    <path d="M13.2498837,37.9431222 C11.2072509,38.6735483 8.84655377,39.8449641 11.7242063,40.8779699 C13.6495855,41.5700076 16.125327,40.9039066 18.7462124,39.9725441 C19.1851989,39.8163346 19.6289247,39.6542304 20.0631718,39.4927156 L20.253975,39.5507155 C22.0035544,38.8875064 23.4321611,38.3031653 23.4321611,38.3031653 C23.4321611,38.3031653 33.3736345,35.0428073 34.6509015,34.5004949 C34.8197424,34.4279901 35.1177319,34.3207066 35.5122865,34.1892548 L35.6073731,34.2181678 C38.2360752,33.3454879 44.915596,31.4458106 47.270133,31.2896633 C50.0059487,31.1092855 58.8532143,31.2896633 64.5997307,34.5500214 C70.3456547,37.8086111 61.8639149,41.7934277 61.8639149,41.7934277 L61.1873663,42.0351103 L61.1213542,42.01504 L45.690861,47.5469613 L45.6936917,47.5478219 L35.9180972,51.0522206 L24.8818236,47.429928 L34.7160681,44.2102433 L34.730572,44.214653 L50.7938731,38.9545296 C50.8483762,38.9386139 50.9052489,38.9221087 50.9638989,38.9050141 L51.0335739,38.9261981 C53.3624978,38.2454459 58.8442797,36.5148184 55.5699984,35.6364144 C52.3412856,34.7698937 49.0942076,35.998349 49.0942076,35.998349 C49.0942076,35.998349 47.630327,36.5005773 45.4478356,37.2497936 L45.3537165,37.2211748 C40.846621,38.7674108 33.3354823,41.3441341 29.2207397,42.7548421 L28.9946205,42.686107 C28.1430851,42.9782334 27.4964638,43.1997164 27.1379036,43.3225016 C24.4927288,44.2279274 20.296587,46.4914919 8.62286474,44.3181163 C-5.89390204,41.6165757 1.6672102,36.4203984 4.56001841,34.7787247 L4.7617672,34.8400652 C4.97975344,34.7262719 5.10847535,34.664957 5.10847535,34.664957 L19.8586573,29.4734955 L20.1672727,29.5673171 L25.4570676,27.7050858 L35.2166667,30.6023304 L29.845155,32.5257707 L29.5367683,32.4320187 L14.9587154,37.65298 C14.8189032,37.7083902 14.3011243,37.8545787 13.6488651,38.06443 L13.2498837,37.9431222 Z" id="Combined-Shape" fill="#008A7A"></path>
                    <path d="M24.8818236,0 L24.8818236,47.8973776 L35.9180972,51.5196702 L35.9180972,10.6841421 C35.9180972,8.96406893 39.8938571,8.03565382 39.9821284,11.6803463 C40.0727693,15.4830167 39.9821284,29.0649929 39.9821284,29.0649929 C39.9821284,29.0649929 45.5165569,31.8696907 49.0521455,28.9742145 C52.6997024,25.9861915 55.8010439,15.4830167 48.7784454,9.0548473 C48.7784454,9.0548473 45.7031705,5.42842841 33.9109634,2.35434282 L24.8818236,0" id="Fill-24" fill="#006F63"></path>
                </g>
                <path d="M33.4453655,141.740622 C34.601564,142.115972 35.8928398,142.30446 37.317585,142.30446 C38.7423303,142.30446 40.0336061,142.115972 41.1898046,141.740622 C42.346003,141.365272 43.3317466,140.796559 44.1470354,140.034484 C44.9639322,139.274034 45.5878612,138.323472 46.0220387,137.186047 C46.454608,136.050247 46.6716968,134.70971 46.6716968,133.164436 C46.6716968,131.641912 46.454608,130.306249 46.0220387,129.15745 C45.5878612,128.0119 44.9639322,127.056463 44.1470354,126.294388 C43.3317466,125.533938 42.346003,124.963601 41.1898046,124.588251 C40.0336061,124.2129 38.7423303,124.026038 37.317585,124.026038 C35.8928398,124.026038 34.601564,124.2129 33.4453655,124.588251 C32.2891671,124.963601 31.3034235,125.533938 30.4881347,126.294388 C29.6712379,127.056463 29.0473089,128.0119 28.6131314,129.15745 C28.1805621,130.306249 27.9634733,131.641912 27.9634733,133.164436 C27.9634733,134.70971 28.1805621,136.050247 28.6131314,137.186047 C29.0473089,138.323472 29.6712379,139.274034 30.4881347,140.034484 C31.3034235,140.796559 32.2891671,141.365272 33.4453655,141.740622 L33.4453655,141.740622 Z M35.5213769,131.599664 C35.5213769,130.891211 35.6709269,130.37937 35.9700269,130.065765 C36.2691269,129.753786 36.719385,129.596171 37.317585,129.596171 C37.9157851,129.596171 38.3660432,129.753786 38.6651432,130.065765 C38.9642432,130.37937 39.1137932,130.891211 39.1137932,131.599664 L39.1137932,134.729208 C39.1137932,135.439287 38.9642432,135.949503 38.6651432,136.263108 C38.3660432,136.576712 37.9157851,136.732702 37.317585,136.732702 C36.719385,136.732702 36.2691269,136.576712 35.9700269,136.263108 C35.6709269,135.949503 35.5213769,135.439287 35.5213769,134.729208 L35.5213769,131.599664 Z M68.2004655,136.90819 L68.2004655,142.041227 L79.5067676,142.041227 L79.5067676,136.90819 L76.6878304,136.90819 L76.6878304,133.87289 C76.6878304,132.369864 76.9965788,131.310433 77.6172917,130.694599 C78.2363966,130.080389 79.2285724,129.77166 80.5906031,129.77166 C80.9009596,129.77166 81.2868951,129.787909 81.7516257,129.818782 C82.2163564,129.849655 82.7904355,129.929274 83.4706468,130.054391 L83.4706468,124.638622 C83.0573742,124.472883 82.6457097,124.357516 82.2324371,124.294145 C81.8191645,124.232399 81.3962435,124.201526 80.962066,124.201526 C80.4249725,124.201526 79.9441611,124.279521 79.5212402,124.435511 C79.0983192,124.5915 78.7220321,124.796237 78.3923788,125.044846 C78.0611175,125.296704 77.7829223,125.577811 77.5545772,125.891415 C77.3278401,126.203394 77.1413046,126.505625 76.9965788,126.798105 L76.6878304,126.705486 L76.6878304,124.638622 L68.2004655,124.638622 L68.2004655,129.77166 L69.5641042,129.77166 L69.5641042,136.90819 L68.2004655,136.90819 Z M84.7040323,136.90819 L84.7040323,142.041227 L94.555036,142.041227 L94.555036,136.90819 L93.1913972,136.90819 L93.1913972,131.775153 C93.1913972,131.065075 93.3409472,130.554858 93.6416553,130.241254 C93.9391473,129.929274 94.3894053,129.77166 94.9892134,129.77166 C95.5874135,129.77166 96.0360635,129.929274 96.3351635,130.241254 C96.6342635,130.554858 96.7854216,131.065075 96.7854216,131.775153 L96.7854216,136.90819 L95.4217828,136.90819 L95.4217828,142.041227 L105.271178,142.041227 L105.271178,136.90819 L103.909148,136.90819 L103.909148,131.775153 C103.909148,129.167199 103.418688,127.253075 102.437769,126.031156 C101.456849,124.810861 100.118939,124.201526 98.4272555,124.201526 C97.7245313,124.201526 97.1038184,124.28927 96.5683329,124.466384 C96.0312393,124.643497 95.550428,124.857983 95.127507,125.108216 C94.704586,125.35845 94.3379473,125.636307 94.0275908,125.936912 C93.7188424,126.240767 93.4390392,126.516999 93.1913972,126.767232 L93.1913972,124.638622 L84.7040323,124.638622 L84.7040323,129.77166 L86.0676711,129.77166 L86.0676711,136.90819 L84.7040323,136.90819 Z M11,119.315473 L105.287259,119.315473 L105.287259,117 L11,117 L11,119.315473 Z M11,149.696099 L105.287259,149.696099 L105.287259,147.380626 L11,147.380626 L11,149.696099 Z M56.7221004,124.638622 L47.0592403,124.638622 L47.0592403,129.77166 L48.3585565,129.77166 L51.6743857,142.041227 L62.1428862,142.041227 L65.3638395,129.77166 L66.6969251,129.77166 L66.6969251,124.638622 L57.5888472,124.638622 L57.5888472,129.77166 L58.9830392,129.77166 L58.9749989,129.792783 L59.2821393,129.792783 L59.2821393,131.913269 C59.2821393,131.913269 59.2580183,133.666528 58.9814312,134.472475 C58.727357,135.211802 58.1114682,136.467844 57.2254246,136.917939 C56.3393811,136.467844 55.7218843,135.211802 55.4678101,134.472475 C55.1912229,133.666528 55.16871,131.997763 55.167102,131.913269 L55.167102,129.792783 L55.3375568,129.792783 L55.3295165,129.77166 L56.7221004,129.77166 L56.7221004,124.638622 Z M15.1279018,142.021729 C16.4191777,142.210216 17.8487471,142.30446 19.4182181,142.30446 C22.1020779,142.30446 24.0751732,141.768245 25.3342877,140.695816 C26.5934023,139.625011 27.2237636,138.160983 27.2237636,136.308605 C27.2237636,134.539096 26.6561168,133.175811 25.5208232,132.218749 C24.3839216,131.260062 22.6182666,130.666976 20.2238585,130.437866 C19.7478714,130.395619 19.3571117,130.348497 19.0467552,130.298125 C18.7363987,130.246128 18.493581,130.182758 18.3183019,130.109637 C18.1430229,130.036517 18.0240261,129.953648 17.9629197,129.861029 C17.9002051,129.766785 17.8696519,129.657917 17.8696519,129.5328 C17.8696519,129.282567 18.0497552,129.095704 18.4115697,128.970587 C18.7733842,128.845471 19.3876649,128.783725 20.2544117,128.783725 C20.3299907,128.783725 20.412002,128.786974 20.4875811,128.788599 L20.4875811,129.766785 L26.1897781,129.766785 L26.1897781,124.610999 L24.120199,124.610999 C23.6554683,124.44526 20.4811488,124.026038 18.9534875,124.026038 C17.5496471,124.026038 16.3468148,124.172278 15.3449905,124.463134 C14.3431663,124.755615 13.5230533,125.156963 12.8830436,125.668805 C12.2430339,126.180646 11.7783033,126.785106 11.4888516,127.48381 C11.1994,128.182514 11.0546742,128.939714 11.0546742,129.753786 C11.0546742,131.505421 11.6689549,132.862206 12.8975162,133.822518 C14.1260776,134.78283 15.8145454,135.408414 17.9629197,135.69927 C18.9325826,135.84551 19.5725923,135.986876 19.8829488,136.123367 C20.1933052,136.258233 20.3476795,136.461344 20.3476795,136.732702 C20.3476795,136.982935 20.2029536,137.181172 19.913502,137.327412 C19.6240504,137.473653 19.0258504,137.546773 18.1172939,137.546773 C17.9725681,137.546773 17.8165858,137.543523 17.6461309,137.540273 L17.6461309,136.896816 L11.9439339,136.896816 L11.9439339,142.023353 L15.1279018,142.021729 L15.1279018,142.021729 Z" id="sovrn_logo-black" fill="#006F63"></path>
                <g id="Emerson_Electric" transform="translate(301.000000, 123.000000)" fill="#006F63">
                    <path d="M49.8988938,5.78236837 L49.8988938,2.27413927 L51.0005953,2.27413927 C52.5521072,2.27413927 54.2517002,2.32974601 54.2517002,3.91954264 C54.2517002,5.59997826 52.6116737,5.78236837 50.6743714,5.78236837 L49.8988938,5.78236837 Z M49.8988938,7.70191296 L51.329046,7.70191296 L55.6267395,12.8694471 L60.1276271,12.8694471 L54.8774266,7.2631758 C55.9819116,6.91563368 58.2777261,6.24001182 58.2777261,3.8828422 C58.2777261,0.446901859 53.6259739,0.355150741 51.329046,0.355150741 L46.4997077,0.355150741 C45.9914442,0.355150741 45.8717546,0.409645345 45.8717546,0.739949368 L45.8717546,12.876676 C45.8717546,12.876676 45.9914442,12.8733396 46.4997077,12.8733396 L49.2726108,12.8733396 L49.8988938,12.876676 L49.8988938,7.70191296 L49.8988938,7.70191296 Z" id="Fill-2"></path>
                    <path d="M80.9898116,11.2646367 C78.7530068,11.2646367 77.7988298,9.47354363 77.7988298,6.62258618 C77.7988298,3.77329692 78.7530068,1.96440974 80.9898116,1.96440974 C83.2260596,1.96440974 84.1802366,3.75439063 84.1802366,6.62258618 C84.1802366,9.47354363 83.2260596,11.2646367 80.9898116,11.2646367 Z M88.4155802,6.62258618 C88.4155802,2.20129444 85.582554,0.0454212111 80.9898116,0.0454212111 C76.3965124,0.0454212111 73.5634862,2.18294422 73.5634862,6.62258618 C73.5634862,11.0455461 76.3658942,13.1830691 80.9898116,13.1830691 C85.6120589,13.1830691 88.4155802,11.0455461 88.4155802,6.62258618 L88.4155802,6.62258618 Z" id="Fill-3"></path>
                    <path d="M36.7803514,7.31822647 L42.4224659,7.31822647 L42.4224659,5.34474334 L36.7803514,5.34474334 L36.7803514,2.32974601 L43.0743569,2.32974601 L43.9311122,0.355150741 L33.3811653,0.355150741 L33.3293926,0.355150741 C32.9163241,0.35959928 32.7788202,0.409645345 32.7548822,0.643193644 L32.7548822,12.8700032 L43.7880413,12.8733396 L43.7891547,12.489097 L43.7891547,11.2829869 L43.7913814,10.8987443 L36.7803514,10.8987443 L36.7803514,7.31822647" id="Fill-4"></path>
                    <path d="M103.577197,0.355150741 L101.399402,0.355150741 L100.772562,0.351814337 C100.772562,0.351814337 100.848273,7.91155036 100.848273,8.49542111 L94.1228281,0.592591512 C93.9441287,0.392963323 93.8845622,0.355150741 93.4364219,0.355150741 L90.9908561,0.355150741 L90.9212691,0.356262876 C90.5321386,0.360155348 90.3946346,0.409089277 90.3662431,0.625955555 L90.3662431,12.876676 C90.3662431,12.876676 90.4848194,12.8733396 90.9908561,12.8733396 L93.1686511,12.8733396 C93.6752445,12.8733396 93.7949341,12.876676 93.7949341,12.876676 L93.7949341,5.91081993 C93.7949341,5.07004605 93.7698828,4.51397867 93.7698828,4.27598183 C93.7698828,4.27598183 100.646192,12.3100433 100.923427,12.6158804 C101.198435,12.9239417 101.60872,12.8733396 101.60872,12.8733396 L103.577197,12.8733396 L104.202923,12.8805685 L104.202923,0.351814337 L103.577197,0.355150741" id="Fill-5"></path>
                    <path d="M4.07891196,7.31822647 L9.71879965,7.31822647 L9.71879965,5.34474334 L4.07891196,5.34474334 L4.07891196,2.32974601 L10.3718041,2.32974601 L11.2285593,0.355150741 L0.67805579,0.355150741 L0.631293322,0.355150741 C0.182039609,0.35959928 0.0606798695,0.418542423 0.0523294288,0.708809595 L0.0523294288,12.8700032 L11.0854885,12.8733396 L11.0854885,11.2829869 L11.089942,10.8987443 L4.07891196,10.8987443 L4.07891196,7.31822647" id="Fill-6"></path>
                    <path d="M21.7478879,8.14009405 L16.9580751,0.691015439 C16.7799324,0.490275115 16.7198092,0.454686802 16.2727823,0.454686802 L13.8272165,0.454686802 L13.2003768,0.457467139 L13.2003768,12.9750999 C13.2003768,12.9750999 13.3200664,12.9706514 13.8272165,12.9706514 L16.0038981,12.9706514 C16.5110482,12.9706514 16.6290677,12.9750999 16.6290677,12.9750999 L16.6290677,6.00924386 C16.6290677,5.16846998 16.6062432,4.83872202 16.6062432,4.60128125 C16.6062432,4.60128125 21.3309226,12.158793 21.7985473,12.6898374 L21.8241553,12.6898374 C22.2956768,12.1549005 26.7759667,4.60128125 26.7759667,4.60128125 C26.7759667,4.83872202 26.7503586,5.16846998 26.7503586,6.00924386 L26.7503586,12.9750999 C26.7503586,12.9750999 26.8700483,12.9706514 27.376085,12.9706514 L29.5533232,12.9706514 C30.06103,12.9706514 30.180163,12.9750999 30.180163,12.9750999 L30.180163,0.457467139 L29.5533232,0.454686802 L27.1083142,0.454686802 C26.6601739,0.454686802 26.6022775,0.490275115 26.4230214,0.691015439 L21.8753713,8.14009405 L21.7478879,8.14009405" id="Fill-7"></path>
                    <path d="M70.2366706,6.12713014 C67.7538063,4.93992629 64.3724344,4.83260528 64.3724344,3.4446611 C64.3724344,2.34809623 65.4719091,2.01890434 66.7695676,2.01890434 C68.8003948,2.01890434 70.5489771,2.8224217 70.7187694,2.8224217 C70.831222,2.8224217 70.9442313,2.75013294 71.0282924,2.63947554 L71.2197959,2.39202555 L72.2296425,1.10806597 C72.2296425,1.10695384 72.2301992,1.10695384 72.2301992,1.10695384 C72.2307559,1.10695384 72.2263023,1.10472957 72.2018077,1.09527642 C72.138901,1.06469272 71.9635418,0.985175082 71.7185955,0.888975426 C71.5192983,0.81168206 71.3962685,0.769420939 71.3333619,0.749402514 C70.3268554,0.414649951 68.4725009,0.0454212111 66.657115,0.0454212111 C63.3848556,0.0454212111 60.4521809,1.14198608 60.4521809,3.77329692 C60.4521809,5.28969267 61.1458241,6.24835283 62.6411097,6.83389178 C65.5181149,7.96660103 68.4056973,7.90320935 68.4056973,9.5285943 C68.4056973,10.6618596 67.7014768,11.209586 66.1210167,11.209586 C63.695492,11.209586 61.6073252,10.4055126 61.4403163,10.4055126 C61.3267503,10.4055126 61.1853496,10.4794695 61.1285666,10.5884587 L60.8201569,11.1623203 L60.2790484,12.1637976 L60.721065,12.3306178 C61.6201292,12.6853888 63.9699432,13.1830691 66.2334693,13.1830691 C69.7885303,13.1830691 72.3921977,12.0203322 72.3265076,9.32729791 C72.2931059,7.9399098 71.6751732,6.8216583 70.2366706,6.12713014" id="Fill-8"></path>
                </g>
                <g id="Oracle_logo" transform="translate(0.000000, 229.948194)" fill-rule="nonzero" fill="#006F63">
                    <path d="M49.0613184,9.10258388 L56.5592784,9.10258388 L52.5946246,3.06244901 L45.3181179,13.9832777 L42.0064531,13.9832777 L50.8571107,0.865034431 C51.2419307,0.3350023 51.8832649,0.0147830321 52.5946246,0.0147830321 C53.2825748,0.0147830321 53.92392,0.323965677 54.2970851,0.842950705 L63.1827186,13.9832777 L59.8710446,13.9832777 L58.308462,11.5429317 L50.7171517,11.5429317 L49.0613184,9.10258388 Z M83.4611008,11.5429317 L83.4611008,0.147290628 L80.6508167,0.147290628 L80.6508167,12.658207 C80.6508167,13.0005187 80.790772,13.3317834 81.0589521,13.5857532 C81.3271138,13.8397318 81.6886221,13.9832777 82.0851007,13.9832777 L94.9004951,13.9832777 L96.5563321,11.5429317 L83.4611008,11.5429317 Z M36.9689295,9.50010842 C39.6976308,9.50010842 41.9132098,7.41311945 41.9132098,4.82921871 C41.9132098,2.24532669 39.6976308,0.147290628 36.9689295,0.147290628 L24.6747599,0.147290628 L24.6747599,13.9832777 L27.48393,13.9832777 L27.48393,2.58763842 L36.7823469,2.58763842 C38.088421,2.58763842 39.137885,3.5924794 39.137885,4.82921871 C39.137885,6.06595627 38.088421,7.07080773 36.7823469,7.07080773 L28.8599375,7.05976062 L37.2487553,13.9832777 L41.3301523,13.9832777 L35.6862612,9.50010842 L36.9689295,9.50010842 Z M7.38166873,13.9832777 C3.34810516,13.9832777 0.074858034,10.8914373 0.074858034,7.07080773 C0.074858034,3.25016942 3.34810516,0.147290628 7.38166873,0.147290628 L15.8742671,0.147290628 C19.9089484,0.147290628 23.179866,3.25016942 23.179866,7.07080773 C23.179866,10.8914373 19.9089484,13.9832777 15.8742671,13.9832777 L7.38166873,13.9832777 Z M15.6853551,11.5429317 C18.298619,11.5429317 20.4150784,9.54427412 20.4150784,7.07080773 C20.4150784,4.59733085 18.298619,2.58763842 15.6853551,2.58763842 L7.56936898,2.58763842 C4.9573168,2.58763842 2.83964377,4.59733085 2.83964377,7.07080773 C2.83964377,9.54427412 4.9573168,11.5429317 7.56936898,11.5429317 L15.6853551,11.5429317 Z M69.0481534,13.9832777 C65.0134629,13.9832777 61.7367777,10.8914373 61.7367777,7.07080773 C61.7367777,3.25016942 65.0134629,0.147290628 69.0481534,0.147290628 L79.1348612,0.147290628 L77.490681,2.58763842 L69.2347359,2.58763842 C66.6226727,2.58763842 64.5004347,4.59733085 64.5004347,7.07080773 C64.5004347,9.54427412 66.6226727,11.5429317 69.2347359,11.5429317 L79.3680525,11.5429317 L77.712234,13.9832777 L69.0481534,13.9832777 Z M103.412964,11.5429317 C101.255663,11.5429317 99.4249002,10.1736848 98.8651526,8.28545283 L110.875951,8.28545283 L112.531788,5.84510679 L98.8651526,5.84510679 C99.4249002,3.96792021 101.255663,2.58763842 103.412964,2.58763842 L111.657252,2.58763842 L113.324746,0.147290628 L103.226381,0.147290628 C99.1916905,0.147290628 95.9150054,3.25016942 95.9150054,7.07080773 C95.9150054,10.8914373 99.1916905,13.9832777 103.226381,13.9832777 L111.890462,13.9832777 L113.54628,11.5429317 L103.412964,11.5429317 L103.412964,11.5429317 Z" id="path16197"></path>
                    <path d="M114.829044,1.61591605 C114.829044,0.942329219 115.400356,0.401260465 116.111716,0.401260465 C116.834733,0.401260465 117.406045,0.942329219 117.406045,1.61591605 C117.406045,2.30052902 116.834733,2.84160826 116.111716,2.84160826 C115.400356,2.84160826 114.829044,2.30052902 114.829044,1.61591605 Z M116.111716,3.18391824 C117.021223,3.18391824 117.755896,2.48824943 117.755896,1.62695267 C117.755896,0.765655917 117.021223,0.0699958404 116.111716,0.0699958404 C115.213774,0.0699958404 114.479193,0.765655917 114.479193,1.62695267 C114.479193,2.48824943 115.213774,3.18391824 116.111716,3.18391824 Z M115.960104,0.699406486 C116.216627,0.699406486 116.321612,0.710443109 116.438254,0.754608815 C116.764718,0.853997808 116.79967,1.13004962 116.79967,1.24047524 C116.79967,1.26255897 116.79967,1.31777003 116.776357,1.38401946 C116.764718,1.45027937 116.718091,1.58278697 116.554822,1.68216548 C116.531508,1.69321084 116.519852,1.70424921 116.473224,1.72633119 L116.893017,2.44408372 L116.484881,2.44408372 L116.111716,1.781544 L115.855211,1.781544 L115.855211,2.44408372 L115.493703,2.44408372 L115.493703,0.699406486 L115.960104,0.699406486 Z M116.088403,1.49444508 C116.204971,1.48340845 116.321612,1.48340845 116.391553,1.38401946 C116.426505,1.33985375 116.438254,1.29568805 116.438254,1.22942814 C116.438254,1.14109673 116.379896,1.06380019 116.298299,1.01962575 C116.216627,0.986505404 116.13503,0.986505404 115.960104,0.986505404 L115.855211,0.986505404 L115.855211,1.49444508 L116.088403,1.49444508 L116.088403,1.49444508 Z" id="path16199"></path>
                </g>
                <g id="Page-1" transform="translate(181.974410, 212.028308)">
                    <path d="M54.4108701,17.3859792 C54.2582727,17.4878772 54.1049666,17.5888707 53.9509678,17.6889737 C51.5034619,19.7260686 49.3652897,21.3896021 47.430144,22.8058697 C47.1352681,22.80477 46.8377055,22.8038902 46.5414862,22.8027905 L46.5791013,22.8804309 C46.6939619,22.987104 46.7976274,23.0933372 46.8925609,23.1964911 C45.1407699,24.4622718 43.5524257,25.5285627 42.0435658,26.4956587 C41.6071854,25.8054728 41.1412502,25.1089086 40.6513577,24.4121244 C41.0957985,24.6006168 41.5579274,24.861471 42.0231909,25.2129423 L42.0516262,25.1852293 C42.0303095,24.4480939 42.0251442,23.8993177 42.026771,23.4986035 C41.3444213,23.7505218 40.6574539,23.9942043 39.9667696,24.2304374 C40.0249557,24.3092146 40.083598,24.3874424 40.1412247,24.4670006 C40.2088424,24.5595972 40.2762362,24.6524138 40.3429583,24.7456702 C40.5514089,25.0373167 40.7585161,25.3311625 40.9620409,25.6296272 C41.2087783,25.9914359 41.448127,26.3578635 41.6814305,26.7269303 C41.4519333,26.8729735 41.2240035,27.0168172 40.9976409,27.1589013 C40.3360174,26.7509043 39.5458755,26.3976734 38.6558743,26.1295611 C37.7516457,25.8569702 37.2929922,25.4931911 37.1653454,25.1440432 C36.0916299,25.4783293 35.0119997,25.797533 33.9297188,26.1045039 C34.0047122,27.273384 34.7453055,28.4124299 36.0525033,28.9066684 C36.5412763,29.0914217 36.9722832,29.2497818 37.356495,29.3923058 C36.5224687,29.8981782 35.6846362,30.4073497 34.8264288,30.9393955 C34.5676007,30.7654194 34.305862,30.5617507 34.0432277,30.3226711 L34.0613636,31.4164551 C33.4203389,31.8187336 32.7656562,32.2368481 32.0905987,32.6780568 C31.9443923,32.5392718 31.7885581,32.3371428 31.6665328,32.0446166 C31.0932258,30.6711837 30.4324506,28.8915688 29.8195674,27.2156666 C28.5188101,27.5524467 27.2201772,27.8767939 25.9293117,28.1936353 L26.346408,29.2398183 L23.601622,29.2398183 C23.601622,29.2398183 23.6668001,29.0345262 23.7667229,28.7202732 C23.267547,28.8411211 22.7700326,28.9612479 22.2745141,29.0809457 C22.022746,29.9290614 21.7685705,30.787222 21.5359237,31.6000648 C21.5359237,31.6000648 21.6207817,31.9055677 20.1777483,32.9054354 C20.1777483,32.9054354 22.8439456,32.9452454 23.6300573,32.9054354 C23.5111666,32.9113739 22.5875804,32.1585039 23.2863713,30.5551084 C24.6127529,32.4684057 25.9422691,34.1485617 27.3085049,35.7658137 C27.3085049,35.7658137 27.3165653,35.7783505 27.3279842,35.7966059 C22.9091004,38.6879964 17.1976438,42.5935509 11.667322,47.9742733 C7.82808553,44.3952219 5.00204589,39.7784348 3.67510017,34.6038435 C2.4453952,35.1412678 1.28690186,35.7175815 0.211361285,36.343036 L0,36.1492649 C5.30575038,32.6778808 10.3354325,30.4370862 18.8955645,27.6600669 C20.9283222,27.0005717 22.8761567,26.3775859 24.7633302,25.7711271 C24.8739843,25.5436503 24.9401671,25.4074393 24.9401671,25.4074393 L25.0968135,25.663926 C34.2297401,22.7270775 41.9650323,20.1523915 51.0838283,15.6493374 C56.4927964,12.9783313 64.4862384,7.807656 67.7083785,2.80567808 C67.6230537,2.97699449 67.5216477,3.16413626 67.4068388,3.36397286 L67.7654953,2.90489505 C65.9983741,8.054696 62.0492093,12.722337 57.0033362,17.0756348 C58.4694288,20.4136019 59.2846014,24.080925 59.2846014,27.9207891 C59.2846014,43.1156552 46.5413519,55.6212598 31.0580183,55.6212598 C23.8325145,55.6212598 17.2039182,52.8975934 12.1884332,48.4482951 C10.7995203,49.6006445 9.49747458,50.7291426 8.3033415,51.8194531 C6.72619226,53.2594297 8.62486142,51.280809 8.02055622,51.8889555 C16.3682075,42.4469579 25.9699207,36.8240767 31.2754472,33.28363 C38.8777625,28.2103614 43.7025451,26.3516879 54.4108701,17.3859792 Z M42.6375163,27.4619654 C42.5163334,27.5400388 42.3950775,27.6180441 42.2737568,27.6959827 C43.2107087,29.2815281 44.0140162,30.9043661 44.6404437,32.4786991 C44.4530397,32.6363993 44.211228,32.8224723 43.8908276,33.0443963 C43.8908276,33.0443963 44.3088483,33.0505548 44.8618805,33.0556135 C47.531884,40.2119478 46.3931303,46.1238362 37.4248292,42.5000305 L37.4955815,42.6390354 C48.7407183,47.2983398 46.9571335,37.6619113 45.3708044,33.0595725 C46.1233312,33.0641913 46.958253,33.0637515 47.3431366,33.0443963 C47.2242458,33.0503348 46.2959578,32.2943856 47.0037047,30.683732 L50.4560136,30.683732 C50.9369501,32.1001746 51.0784547,32.1001746 49.9748532,33.0721093 C49.9535828,33.0908046 54.0496033,33.0721093 56.2570301,33.0998224 C56.2570301,33.0998224 55.7010872,32.954439 55.3795673,32.1835335 C54.1628965,29.2675093 52.5499233,24.5189075 51.8424004,22.8248949 C51.8424004,22.8248949 50.8881062,22.8200822 49.5710347,22.8143346 C48.841528,23.3288957 48.1025055,23.8397085 47.3561079,24.347104 C47.1732171,25.1464176 46.8632524,26.2464823 46.5072743,27.4624248 C46.1051505,28.8361981 45.6454845,30.3535953 45.2491821,31.7390257 C45.2491821,31.7390257 45.2756023,31.8415198 45.0234912,32.1186499 C44.9381855,31.9033242 44.856686,31.7086734 44.7816796,31.5399759 C44.3824665,30.6417226 43.9116055,29.7029994 43.377157,28.7407422 C43.1433525,28.3193544 42.8956013,27.8922411 42.6375163,27.4619654 Z M36.1217767,31.5879 C35.4399359,32.0161015 34.7605426,32.4428835 34.0850988,32.8684782 L34.100143,33.7664741 C34.439351,33.4229208 35.3734604,32.7943194 35.3734604,32.7943194 C35.4014479,32.7943194 38.3172932,34.0565809 40.9481143,32.7388934 C43.6964319,31.3620745 43.6453828,29.4067698 41.9770165,27.8864018 C40.8991199,28.5773341 39.8166627,29.2630909 38.7355343,29.9445828 C39.542949,30.3228421 39.7852018,30.6451007 39.5329341,31.2392898 C39.4285061,31.484881 37.9699265,32.2132554 36.1217767,31.5879 Z M27.9989971,36.7901961 C29.0296612,38.2415162 30.9510176,40.6317545 31.9070458,39.7925137 C32.9363365,38.8885614 30.5558013,37.9415157 28.767216,36.2809757 C28.5108086,36.4501745 28.2547123,36.6199305 27.9989971,36.7901961 Z M8.32975117,32.8392073 C10.1287901,32.8204083 10.6867751,32.8177027 10.8362065,32.8187773 C10.837326,32.8200969 10.8384455,32.8209767 10.839565,32.8222964 C10.839565,32.8222964 10.9447978,32.8194371 10.8362065,32.8187773 C10.6111662,32.5780299 10.4240724,32.3929039 10.2745508,32.2201971 C9.61489748,32.4215309 8.96624863,32.6275338 8.32975117,32.8392073 Z M12.9698448,31.4371941 C13.304193,31.9899792 13.6216489,32.512896 13.8955715,32.9610814 L18.3384126,32.9610814 C17.743959,32.1279316 17.3816893,31.9420785 17.3763157,31.4612798 C17.3715386,31.0623971 17.3678144,30.6690999 17.3649389,30.2827924 C15.8658533,30.6591877 14.3973914,31.040993 12.9698448,31.4371941 Z M8.46875858,31.4865074 C6.70532481,32.2664306 5.08541072,33.073407 3.51609796,33.9509856 C3.06919423,32.0071161 2.83141279,29.9891252 2.83141279,27.9207671 C2.83141279,12.7256811 15.5746623,0.219856526 31.0579959,0.219856526 C41.1428846,0.219856526 50.0639429,5.52645758 55.0598162,13.4246647 C53.6322319,14.2707912 52.2514427,15.0181627 51.0079039,15.6322477 C46.5064011,17.8550069 42.3423151,19.6079646 38.180692,21.1664913 C34.5429942,16.7475863 30.0294008,12.7120445 25.398484,10.7030714 C15.6360108,6.46804 14.8577355,16.1878275 20.2521502,25.7118645 C20.4923945,26.1361374 20.7319672,26.545894 20.971092,26.9477326 C20.263793,27.1753752 19.547314,27.4067568 18.8194162,27.6429772 C18.3190005,27.8052963 17.8320187,27.9656358 17.3551124,28.1246557 C17.3526495,26.3376066 17.3642923,24.8316466 17.3763829,23.8524536 C17.3819804,23.3718749 17.5176636,23.4356588 18.1969752,22.658155 C18.1969752,22.658155 16.385403,22.630442 14.9992401,22.630442 C14.9708049,22.630442 15.9046904,23.6023767 15.9046904,23.9355926 C15.9046904,26.0085696 15.9194678,27.7830819 15.9275281,28.6078737 C15.8518501,28.6338272 15.7755003,28.6600006 15.70027,28.686174 C14.8756475,27.2596139 12.1283986,22.630442 12.0563029,22.630442 C11.9996563,22.574796 12.4523814,22.6212043 7.62040274,22.5844736 L7.55703914,22.630442 C8.43427803,23.6857357 8.4530856,23.6580227 8.4530856,23.9355926 C8.4530856,25.6296052 8.41658995,28.253983 8.46248938,31.3226488 C8.46248938,31.329687 8.47346047,31.3901717 8.46875858,31.4865074 Z M20.5172698,24.9353284 C13.5134643,10.9114469 19.59749,6.53763044 29.572444,13.6884662 C30.1617479,14.1160383 30.7926972,14.6069544 31.4511861,15.1530766 C31.5456717,15.2320367 31.6408291,15.3123164 31.737106,15.3941358 C31.7518833,15.4066726 31.7671085,15.4196494 31.7818859,15.4321862 C33.5874128,16.9713578 35.6701275,19.0025453 37.6789553,21.3528723 C34.7626621,22.4341195 31.8400998,23.4265091 28.7981989,24.4228577 C28.5333256,23.7071583 28.3036046,23.1036306 28.1291867,22.6859559 C28.1291867,22.6859559 25.4208964,22.6723194 22.8281382,22.6639615 L22.8657534,22.7416019 C23.4035604,23.2413158 23.7429923,23.7412497 23.7147809,23.8800347 C23.5932034,24.477184 23.3713188,25.3103338 23.1004002,26.2635733 C22.5773706,26.4313909 22.0482957,26.601408 21.5147428,26.7729647 C21.1721763,26.1863727 20.8376702,25.5771265 20.5172698,24.9353284 Z M9.82075432,26.1850751 C9.81247003,26.1769371 10.9241319,28.040307 12.099829,29.9942939 C11.3168519,30.2947381 10.5643251,30.5949624 9.83933799,30.8973861 C9.77060079,28.7324723 9.84045749,26.2044302 9.82075432,26.1850751 Z M31.672287,32.9528774 C31.5157811,33.0562513 31.3583797,33.160505 31.1994109,33.2665183 C30.2435832,33.9043574 29.1464749,34.611039 27.9441337,35.3942614 C26.756122,33.8891812 25.3977228,32.332414 24.0485034,30.5451449 L26.7426881,30.5451449 C27.2236245,31.9613676 27.3651291,31.9613676 26.2615277,32.9330824 C26.242944,32.9495783 29.407318,32.9370414 31.672287,32.9528774 Z M48.5317751,25.5462902 L50.0596664,29.3786033 L47.3148804,29.3786033 C47.3148804,29.3786033 47.6189362,28.420525 47.9232158,27.4624468 C48.2274955,26.5043685 48.5317751,25.5462902 48.5317751,25.5462902 Z" id="Combined-Shape" fill="#006F63"></path>
                    <path d="M7.69643907,22.6016292 C12.5286417,22.63836 12.0759165,22.5919517 12.1323392,22.6473777 C12.2171972,22.6473777 16.009162,29.062499 16.009162,29.1179251 C16.009162,29.145858 15.9807267,26.8382003 15.9807267,23.9527483 C15.9807267,23.6195324 15.0470651,22.6473777 15.0752765,22.6473777 C16.4614393,22.6473777 18.2730115,22.6753106 18.2730115,22.6753106 C17.5939238,23.4528145 17.4582406,23.3890305 17.4524192,23.8693893 C17.4333877,25.4151593 17.4152519,28.2709188 17.4524192,31.4783695 C17.4577928,31.9591682 17.8200625,32.1450213 18.4145161,32.978171 L13.971675,32.978171 C12.5286417,30.6175067 9.8841627,26.1895839 9.89692498,26.2021208 C9.91752375,26.2223557 9.84027837,28.9791401 9.92513634,31.2007995 C9.9533477,31.9347543 10.2930035,32.1727343 10.9156685,32.8393861 C10.9156685,32.8393861 11.6325952,32.8206908 7.43514816,32.8668791 C8.70846556,32.2006672 8.53897351,31.3672975 8.53852571,31.3398044 C8.49262628,28.2709188 8.52912193,25.6467609 8.52912193,23.9527483 C8.52912193,23.6749584 8.51031435,23.7026714 7.63307546,22.6473777" id="Fill-32" fill="#06B39A"></path>
                    <path d="M22.8702314,27.3405315 C23.277281,25.9502623 23.6258928,24.707136 23.7909068,23.8970804 C23.8191182,23.7582954 23.4796863,23.2583615 22.9418793,22.7586476 L22.9040402,22.6810072 C25.4967984,22.6893651 28.2053126,22.7032216 28.2053126,22.7032216 C28.9128356,24.3970142 30.5255849,29.145836 31.7424795,32.0616403 C32.0642234,32.8325458 32.6197184,32.9781491 32.6197184,32.9781491 C30.4125155,32.9502161 26.3167189,32.9689114 26.3377655,32.9502161 C27.441367,31.9785013 27.2998624,31.9785013 26.818702,30.5620587 L23.366393,30.5620587 C22.659094,32.1727123 23.5871581,32.9284416 23.7060488,32.9225031 C22.920161,32.962313 20.2537399,32.9225031 20.2537399,32.9225031 C21.6967732,31.9226354 21.6119153,31.6171325 21.6119153,31.6171325 C22.0084416,30.231922 22.4681076,28.7143049 22.8702314,27.3405315 L24.2861729,27.3405315 C23.9818932,28.2988297 23.6776136,29.256908 23.6776136,29.256908 L26.4226235,29.256908 L24.8945083,25.4245949 C24.8945083,25.4245949 24.5904525,26.3826732 24.2861729,27.3405315 L22.8702314,27.3405315 Z" id="Fill-34" fill="#06B39A"></path>
                    <path d="M46.5833778,27.4794045 C46.9904274,26.0891353 47.3390392,24.8460089 47.5040533,24.0361733 C47.5322646,23.8971683 47.1928327,23.3972345 46.6552496,22.8975206 L46.6174106,22.8198802 C49.2101687,22.828238 51.9184591,22.8418746 51.9184591,22.8418746 C52.625982,24.5358872 54.2389552,29.284709 55.455626,32.2005133 C55.7773698,32.9714187 56.3330888,33.1168021 56.3330888,33.1168021 C54.1258859,33.0890891 50.0298654,33.1077843 50.050912,33.0890891 C51.1545134,32.1171543 51.0130088,32.1171543 50.5320723,30.7009316 L47.0797634,30.7009316 C46.3722404,32.3113653 47.3003046,33.0675345 47.4191953,33.0613761 C46.6333075,33.1009661 43.9668863,33.0613761 43.9668863,33.0613761 C45.4101436,32.0615083 45.3252856,31.7562254 45.3252856,31.7562254 C45.721588,30.3707949 46.181254,28.8533978 46.5833778,27.4794045 L47.9993193,27.4794045 C47.6950397,28.4374827 47.3909839,29.395561 47.3909839,29.395561 L50.1357699,29.395561 L48.6078786,25.5634679 C48.6078786,25.5634679 48.303599,26.5215462 47.9993193,27.4794045 L46.5833778,27.4794045 Z" id="Fill-36" fill="#06B39A"></path>
                    <path d="M42.1276849,25.202407 C42.0710383,23.2308245 42.1276849,22.5918857 42.1276849,22.5918857 C41.250446,23.2862505 41.6935435,23.1980527 39.4959682,22.8419626 C33.1573687,21.8143819 32.6762083,27.6182774 36.1285173,28.9236481 C39.0208532,30.0169922 40.0445224,30.2309982 39.6090376,31.2563795 C39.467533,31.5895954 36.8358163,32.8113871 34.1192417,30.3398707 L34.1761122,33.7835418 C34.5155441,33.4399885 35.4496535,32.8113871 35.4496535,32.8113871 C35.4776409,32.8113871 38.3932624,34.0736486 41.0240835,32.7559611 C45.0706221,30.7287326 43.0505993,27.4480404 38.7320226,26.1466288 C35.138209,25.063622 38.5338714,22.5364597 42.0992497,25.23012" id="Fill-38" fill="#06B39A"></path>
                </g>
                <g id="Tendril" transform="translate(309.487187, 21.398392)">
                    <path d="M17.6474813,7.87706958 L27.6419308,7.87706958 L26.573806,9.58611464 L17.6474813,9.58611464 L17.6474813,13.3021868 L28.4937654,13.3021868 L27.4266657,15.0117439 L15.6880567,15.0117439 L15.6880567,2.86308567 L28.3681941,2.86308567 L27.3051947,4.5931226 L17.6474813,4.5931226 L17.6474813,7.87706958 Z M8.41568522,15.0117439 L6.4521603,15.0117439 L6.4521603,4.5931226 L-0.000153760761,4.5931226 L1.06182056,2.86308567 L14.9038768,2.86308567 L13.8393398,4.5931226 L8.41568522,4.5931226 L8.41568522,15.0117439 Z M83.3884072,15.0117439 L85.3498819,15.0117439 L85.3498819,2.86308567 L83.3884072,2.86308567 L83.3884072,15.0117439 Z M76.6244713,8.6071769 C78.5090657,8.6071769 79.0974569,8.25645915 79.0974569,6.49519042 C79.0974569,4.7963853 78.3460793,4.5931226 76.5906439,4.5931226 L69.082506,4.5931226 L69.082506,8.6071769 L76.6244713,8.6071769 Z M76.8853521,2.86308567 C79.5894913,2.86308567 81.1117228,3.5153695 81.1117228,6.58427785 C81.1117228,8.28922694 80.8124019,9.11098168 79.5951292,9.54003493 C80.3726461,9.83187306 80.9031207,10.3960935 80.9031207,11.5951898 L80.9031207,15.0117439 L78.955997,15.0117439 L78.955997,12.1691381 C78.955997,10.5880922 78.399383,10.31315 76.7654187,10.31315 L69.082506,10.31315 L69.082506,15.0117439 L67.1194936,15.0117439 L67.1194936,2.86308567 L76.8853521,2.86308567 Z M59.7471776,13.3021868 C63.038683,13.3021868 63.0930118,11.7600527 63.0930118,8.79405571 C63.0930118,5.97807373 62.9120866,4.5931226 59.8886375,4.5931226 L52.1519086,4.5931226 L52.1519086,13.3021868 L59.7471776,13.3021868 Z M60.2012844,2.88049356 C64.4584074,2.88049356 65.1088154,5.09027142 65.1088154,8.77306384 C65.1088154,10.2409584 65.0155338,12.7011027 63.8044116,13.9411588 C62.731674,15.0086719 61.0305675,15.0117439 59.7307765,15.0117439 L59.5903417,15.0117439 L50.1888962,15.0117439 L50.1888962,2.88049356 L60.2012844,2.88049356 Z M99.4702452,13.3021868 L98.4041705,15.0117439 L88.0765728,15.0117439 L88.0765728,2.86308567 L90.0385601,2.86308567 L90.0385601,13.3021868 L99.4702452,13.3021868 Z" id="Fill-1" fill="#006F63"></path>
                    <mask id="mask-8" fill="white">
                        <use xlink:href="#path-7"></use>
                    </mask>
                    <g id="Clip-5"></g>
                    <path d="M32.0374896,9.8735496 L31.9867486,1.47014739 C31.9867486,1.01856628 32.0077626,0.238283275 32.5341369,0.0508924742 C33.0620488,-0.13905831 33.6653036,0.178891655 34.4715225,1.36570006 L43.9606116,14.5496157 L43.9585614,7.30383805 L48.9306719,7.64892384 C49.7799438,7.75388316 49.775331,8.34011941 48.9516859,8.50395836 L45.5874004,9.19361795 L45.61764,16.5586908 C45.6330161,17.1157432 45.5653614,17.7531792 44.8252596,17.9031942 C44.3834537,17.9933056 43.9539486,17.7444752 43.1646434,16.6682581 L33.6437771,3.41522294 L33.629426,11.7500176 L28.0853255,10.9902144 C27.4610569,10.8765512 27.3862266,10.1966195 28.1017267,10.1341559 L32.0374896,9.8735496 Z" id="Fill-4" fill="#006F63" mask="url(#mask-8)"></path>
                    <mask id="mask-10" fill="white">
                        <use xlink:href="#path-9"></use>
                    </mask>
                    <g id="Clip-2"></g>
                </g>
                <g id="salesforce" transform="translate(10.069444, 310.280890)">
                    <mask id="mask-12" fill="white">
                        <use xlink:href="#path-11"></use>
                    </mask>
                    <g id="Clip-2"></g>
                    <path d="M37.5615903,6.88375238 C40.472272,3.85411689 44.5250338,1.9747242 49.0077454,1.9747242 C54.9667911,1.9747242 60.1643592,5.29335036 62.9332693,10.2209001 C65.339571,9.14746725 68.0021523,8.54987485 70.8040516,8.54987485 C81.5508907,8.54987485 90.2638513,17.3301796 90.2638513,28.1606566 C90.2638513,38.9927679 81.5508907,47.7730726 70.8040516,47.7730726 C69.4918456,47.7730726 68.2104477,47.6404256 66.9699454,47.3914742 C64.5331082,51.7345056 59.8873591,54.6701714 54.55429,54.6701714 C52.3230218,54.6701714 50.2122595,54.155926 48.3310583,53.2388368 C45.8609593,59.0464326 40.1020298,63.1192672 33.3921395,63.1192672 C26.4036133,63.1192672 20.4470214,58.7018773 18.1612256,52.5058737 C17.1622805,52.7166925 16.1262566,52.8278218 15.0651501,52.8278218 C6.74451532,52.8278218 0,46.0197899 0,37.6210836 C0,31.9910768 3.02873396,27.0766011 7.53243873,24.4470856 C6.60519737,22.3146558 6.0904571,19.9635084 6.0904571,17.4906089 C6.0904571,7.83134762 13.9399737,0 23.6216166,0 C29.3061159,0 34.3578228,2.69978845 37.5615903,6.88375238" id="Fill-1" fill="#006F63" mask="url(#mask-12)"></path>
                    <path d="M13.0729853,32.7316665 C13.016004,32.8801113 13.0928878,32.9106173 13.1114272,32.9359483 C13.2812806,33.0590621 13.4524972,33.1478566 13.6261675,33.2472738 C14.5468655,33.7350987 15.4171256,33.8767341 16.3258275,33.8767341 C18.1778565,33.8767341 19.3281156,32.8934577 19.3281156,31.3095927 L19.3281156,31.2790866 C19.3281156,29.8145222 18.0292689,29.2820276 16.8127588,28.8977054 L16.6535382,28.8473159 C15.7355666,28.5490644 14.9435536,28.2919417 14.9435536,27.6875399 L14.9435536,27.6570338 C14.9435536,27.1400647 15.4064927,26.7598281 16.1243482,26.7598281 C16.9215413,26.7598281 17.8675946,27.0248497 18.476395,27.3615062 C18.476395,27.3615062 18.6568812,27.4767211 18.721769,27.3032177 C18.7574846,27.2089757 19.0652927,26.3806811 19.0985546,26.2905247 C19.1331796,26.1938313 19.0721087,26.1208346 19.0083114,26.0824296 C18.3119943,25.6597025 17.350128,25.3709842 16.3552724,25.3709842 L16.1706966,25.3720737 C14.4754344,25.3720737 13.2919135,26.3953894 13.2919135,27.8610433 L13.2919135,27.8915494 C13.2919135,29.4356475 14.5973035,29.9379084 15.8206296,30.2865494 L16.0169289,30.3475615 C16.9084546,30.620482 17.6764755,30.8563594 17.6764755,31.4820065 L17.6764755,31.5138745 C17.6764755,32.0861359 17.176185,32.5129487 16.3724486,32.5129487 C16.0591877,32.5129487 15.062969,32.5077736 13.98714,31.8279237 C13.8570917,31.7508414 13.7829342,31.6966386 13.6820582,31.6356265 C13.6288939,31.6023966 13.4963919,31.5454701 13.4377747,31.7192458 L13.0729853,32.7316665" id="Fill-4" fill="#06B39A" mask="url(#mask-12)"></path>
                    <path d="M40.1791863,32.7316665 C40.122205,32.8801113 40.1990889,32.9106173 40.2176283,32.9359483 C40.3874817,33.0590621 40.5586982,33.1478566 40.7323685,33.2472738 C41.6530666,33.7350987 42.5233266,33.8767341 43.4320286,33.8767341 C45.2840576,33.8767341 46.4343167,32.8934577 46.4343167,31.3095927 L46.4343167,31.2790866 C46.4343167,29.8145222 45.1354699,29.2820276 43.9189598,28.8977054 L43.7597393,28.8473159 C42.8417677,28.5490644 42.0497547,28.2919417 42.0497547,27.6875399 L42.0497547,27.6570338 C42.0497547,27.1400647 42.5126938,26.7598281 43.2305492,26.7598281 C44.0277423,26.7598281 44.9735231,27.0248497 45.582596,27.3615062 C45.582596,27.3615062 45.7628097,27.4767211 45.8279701,27.3032177 C45.8636857,27.2089757 46.1714938,26.3806811 46.2047556,26.2905247 C46.239108,26.1938313 46.1780371,26.1208346 46.1145125,26.0824296 C45.4179228,25.6597025 44.4574196,25.3709842 43.4612009,25.3709842 L43.2768977,25.3720737 C41.5813628,25.3720737 40.3981145,26.3953894 40.3981145,27.8610433 L40.3981145,27.8915494 C40.3981145,29.4356475 41.7048678,29.9379084 42.926558,30.2865494 L43.1228573,30.3475615 C44.0143831,30.620482 44.7837671,30.8563594 44.7837671,31.4820065 L44.7837671,31.5138745 C44.7837671,32.0861359 44.2837493,32.5129487 43.478377,32.5129487 C43.1653888,32.5129487 42.1705332,32.5077736 41.0933411,31.8279237 C40.9632928,31.7508414 40.8864089,31.6993624 40.7882593,31.6356265 C40.7549975,31.6143811 40.5985034,31.5536414 40.545339,31.7192458 L40.1791863,32.7316665" id="Fill-5" fill="#06B39A" mask="url(#mask-12)"></path>
                    <path d="M58.6839356,29.6290343 C58.6839356,30.5235163 58.5168086,31.230059 58.1877347,31.7282342 C57.8613872,32.2212343 57.3692759,32.4625592 56.683319,32.4625592 C55.9962716,32.4625592 55.506614,32.2212343 55.1857193,31.7282342 C54.8604623,31.230059 54.6960617,30.5235163 54.6960617,29.6290343 C54.6960617,28.7356418 54.8604623,28.030461 55.1843561,27.5377333 C55.506614,27.0499083 55.9962716,26.812669 56.683319,26.812669 C57.3692759,26.812669 57.8613872,27.0499083 58.1877347,27.5377333 C58.5168086,28.030461 58.6839356,28.7356418 58.6839356,29.6290343 M60.229247,27.9697212 C60.0782056,27.4568377 59.8407381,27.0046939 59.5263866,26.6282706 C59.2117625,26.2507578 58.8126207,25.9473313 58.3390487,25.7272516 C57.8665673,25.507172 57.3095682,25.3946809 56.683319,25.3946809 C56.0559793,25.3946809 55.4973444,25.507172 55.0251356,25.7272516 C54.5526542,25.9473313 54.1535124,26.2507578 53.8391609,26.6299049 C53.5234463,27.0060558 53.2873419,27.4581995 53.1360279,27.9697212 C52.9847139,28.479881 52.90783,29.0377065 52.90783,29.6290343 C52.90783,30.2200897 52.9847139,30.7792771 53.1360279,31.2883474 C53.2873419,31.799869 53.5234463,32.2517404 53.8391609,32.6295256 C54.1535124,33.0073107 54.5540174,33.3093754 55.0264988,33.5240075 C55.4987075,33.738912 56.0559793,33.8475899 56.683319,33.8475899 C57.3095682,33.8475899 57.8654768,33.738912 58.3390487,33.5240075 C58.8112575,33.3093754 59.2103993,33.0073107 59.5263866,32.6295256 C59.8407381,32.2531023 60.0782056,31.8012309 60.229247,31.2883474 C60.380561,30.7779152 60.4574449,30.2200897 60.4574449,29.6290343 C60.4574449,29.0377065 60.380561,28.479881 60.229247,27.9697212" id="Fill-6" fill="#06B39A" mask="url(#mask-12)"></path>
                    <path d="M72.9213572,32.2223238 C72.8709192,32.0727895 72.7236947,32.1297161 72.7236947,32.1297161 C72.4995864,32.2157868 72.2607557,32.2939586 72.0047487,32.3337255 C71.7473786,32.3748542 71.4632899,32.3947377 71.1582082,32.3947377 C70.4114531,32.3947377 69.8157394,32.1722067 69.389879,31.7334093 C68.9640187,31.2932501 68.7238247,30.5828942 68.7265511,29.6222249 C68.7292775,28.7487159 68.9400266,28.0914732 69.3195385,27.5889399 C69.696324,27.0907647 70.2707719,26.8350038 71.0349759,26.8350038 C71.6715853,26.8350038 72.1585165,26.90909 72.6680766,27.0681575 C72.6680766,27.0681575 72.7899457,27.1212707 72.8469271,26.9622033 C72.9837913,26.58578 73.0833041,26.3193965 73.2278021,25.907292 C73.2689705,25.7893533 73.1680945,25.7403257 73.1310157,25.7256174 C72.9306269,25.6474455 72.4584181,25.5188842 72.100172,25.464409 C71.7672811,25.4142919 71.3757732,25.3875991 70.9406432,25.3875991 C70.2920377,25.3875991 69.7135002,25.4990008 69.2186625,25.7190804 C68.7238247,25.9377981 68.3061435,26.2412247 67.9729801,26.6190099 C67.6414524,26.9965226 67.3892624,27.4486664 67.2221354,27.9601881 C67.0536452,28.4703478 66.970218,29.0298076 66.970218,29.6233144 C66.970218,30.9037528 67.3151049,31.9387807 67.9983354,32.6957129 C68.6829291,33.4575479 69.7096832,33.8432319 71.0494257,33.8432319 C71.8414386,33.8432319 72.6533542,33.683075 73.238435,33.4537346 C73.238435,33.4537346 73.3499439,33.3992594 73.3008691,33.2693362 L72.9213572,32.2223238" id="Fill-7" fill="#06B39A" mask="url(#mask-12)"></path>
                    <path d="M75.6256521,28.771323 C75.6998096,28.2742373 75.8366738,27.8607709 76.0487861,27.5385504 C76.3685903,27.0496359 76.856612,26.7791668 77.5439321,26.7791668 C78.2309795,26.7791668 78.6835583,27.0496359 79.0099058,27.5385504 C79.2261076,27.8621328 79.3201677,28.291397 79.3572465,28.7726849 L75.6256521,28.771323 Z M80.828673,27.6790963 C80.6972615,27.1833724 80.3722772,26.6838353 80.1598923,26.4558568 C79.8229119,26.0927799 79.4927475,25.8397428 79.1664,25.6991969 C78.7405396,25.5161604 78.2285257,25.395498 77.6671644,25.395498 C77.0144693,25.395498 76.421482,25.5055378 75.9400036,25.7310649 C75.4585251,25.9563197 75.0539305,26.2649214 74.7354895,26.6495159 C74.4184117,27.0324762 74.1795809,27.4884333 74.0271763,28.0064919 C73.8744991,28.5207374 73.7976153,29.0812867 73.7976153,29.6737039 C73.7976153,30.2767438 73.8772255,30.8389274 74.0350828,31.3422778 C74.1943034,31.8527099 74.4489471,32.2994062 74.7924708,32.6717438 C75.1373577,33.0454433 75.5793037,33.3368854 76.1084937,33.5425291 C76.6352301,33.7451767 77.2745659,33.8511308 78.0082343,33.8486794 C79.5191933,33.8445938 80.3152959,33.5079374 80.6430066,33.3265351 C80.7013511,33.2933053 80.755606,33.2377406 80.6879918,33.0759494 L80.3444681,32.1190934 C80.2926669,31.9771856 80.1481689,32.028937 80.1481689,32.028937 C79.7724739,32.168121 79.2419206,32.4173449 78.0003278,32.4146211 C77.1884123,32.4132592 76.5875185,32.1746581 76.2107329,31.7995967 C75.8246777,31.4179982 75.6335586,30.8560871 75.60166,30.0621117 L80.8324899,30.0661974 C80.8324899,30.0661974 80.9704447,30.0648355 80.9851671,29.9294647 C80.9903472,29.8739001 81.1642902,28.8560319 80.828673,27.6790963 L80.828673,27.6790963 Z" id="Fill-8" fill="#06B39A" mask="url(#mask-12)"></path>
                    <path d="M33.7250303,28.771323 C33.7991878,28.2742373 33.936052,27.8607709 34.1468011,27.5385504 C34.4693317,27.0496359 34.9559903,26.7791668 35.6433103,26.7791668 C36.3303577,26.7791668 36.7842997,27.0496359 37.1103746,27.5385504 C37.3254859,27.8621328 37.4195459,28.291397 37.4566247,28.7726849 L33.7250303,28.771323 Z M38.9280512,27.6790963 C38.7966398,27.1833724 38.4716554,26.6838353 38.2592705,26.4558568 C37.9222902,26.0927799 37.5934889,25.8397428 37.2657782,25.6991969 C36.8385547,25.5161604 36.327904,25.395498 35.7679058,25.395498 C35.1138476,25.395498 34.5208602,25.5055378 34.0393818,25.7310649 C33.5579033,25.9563197 33.1533087,26.2649214 32.8348677,26.6495159 C32.5177899,27.0324762 32.2789591,27.4884333 32.1265546,28.0064919 C31.9738774,28.5207374 31.8969935,29.0812867 31.8969935,29.6737039 C31.8969935,30.2767438 31.9766038,30.8389274 32.1344611,31.3422778 C32.2936816,31.8527099 32.5483253,32.2994062 32.891849,32.6717438 C33.2367359,33.0454433 33.6786819,33.3368854 34.207872,33.5425291 C34.7346083,33.7451767 35.3739441,33.8511308 36.1076126,33.8486794 C37.6185716,33.8445938 38.4146741,33.5079374 38.7421122,33.3265351 C38.8007293,33.2933053 38.8549843,33.2377406 38.7873701,33.0759494 L38.4438464,32.1190934 C38.3920452,31.9771856 38.2475471,32.028937 38.2475471,32.028937 C37.8721248,32.168121 37.3412989,32.4173449 36.0997061,32.4146211 C35.2891537,32.4132592 34.6868967,32.1746581 34.3101112,31.7995967 C33.924056,31.4179982 33.7329368,30.8560871 33.7010382,30.0621117 L38.9318681,30.0661974 C38.9318681,30.0661974 39.0698229,30.0648355 39.0845453,29.9294647 C39.0897255,29.8739001 39.2636684,28.8560319 38.9280512,27.6790963 L38.9280512,27.6790963 Z" id="Fill-9" fill="#06B39A" mask="url(#mask-12)"></path>
                    <path d="M22.4162846,32.1937244 C22.2107157,32.0308437 22.1829066,31.9897149 22.1152924,31.8837608 C22.0105995,31.7233314 21.9574351,31.4953529 21.9574351,31.2039109 C21.9574351,30.7452301 22.1098397,30.4140212 22.4244638,30.1925797 C22.4217374,30.1925797 22.8754068,29.8003586 23.9419661,29.8147946 C24.6914476,29.8243277 25.362682,29.935457 25.362682,29.935457 L25.362682,32.3119354 C25.362682,32.3119354 24.6982635,32.4535708 23.9498726,32.4987852 C22.8860397,32.5636106 22.4124677,32.1926349 22.4162846,32.1937244 M24.4978747,28.5212821 C24.2854898,28.5054843 24.0109435,28.4975854 23.6821422,28.4975854 C23.2336529,28.4975854 22.7998861,28.5531501 22.3925652,28.6631899 C21.983881,28.7732297 21.6163652,28.9429198 21.3006505,29.1681745 C20.9824822,29.396153 20.7275658,29.6862332 20.5418994,30.0310609 C20.356233,30.3756162 20.2619003,30.7811837 20.2619003,31.234417 C20.2619003,31.6982729 20.3415105,32.0997547 20.5020942,32.4285123 C20.6613148,32.7583593 20.8908758,33.0342759 21.1839615,33.2461843 C21.4745935,33.458365 21.8339302,33.6133468 22.2491576,33.7073164 C22.6605682,33.8015584 23.1262336,33.8492242 23.6355211,33.8492242 C24.1728904,33.8492242 24.70617,33.8042822 25.2247272,33.7168496 C25.7383769,33.6291446 26.3670798,33.5019451 26.5421133,33.4608164 C26.7160563,33.4210495 26.908266,33.3682086 26.908266,33.3682086 C27.0383142,33.3349788 27.0276814,33.1971566 27.0276814,33.1971566 L27.024955,28.4180517 C27.024955,27.3683155 26.7452285,26.5917723 26.1945001,26.1093948 C25.6454074,25.6294687 24.8362183,25.3870543 23.7906521,25.3870543 C23.3980536,25.3870543 22.7679875,25.4398952 22.3884756,25.5156157 C22.3884756,25.5156157 21.2463956,25.7367848 20.7766406,26.1053092 C20.7766406,26.1053092 20.6733108,26.1690451 20.7289289,26.3134043 L21.0991712,27.3073034 C21.1455196,27.4358647 21.2714783,27.3922846 21.2714783,27.3922846 C21.2714783,27.3922846 21.3112834,27.3762144 21.3579045,27.3484321 C22.3633929,26.8023187 23.6368843,26.8183889 23.6368843,26.8183889 C24.2020626,26.8183889 24.6371926,26.9336038 24.9302783,27.1564072 C25.2154575,27.3762144 25.3602282,27.704972 25.3602282,28.4019815 L25.3602282,28.623423 C24.911739,28.5585976 24.4978747,28.5212821 24.4978747,28.5212821" id="Fill-10" fill="#06B39A" mask="url(#mask-12)"></path>
                    <path d="M66.6959444,25.8280307 C66.7357495,25.710092 66.6520497,25.6531654 66.6176973,25.639819 C66.5288173,25.6068616 66.0830545,25.5126196 65.7408939,25.4902847 C65.0827462,25.4502455 64.7179567,25.5602853 64.3916092,25.7076406 C64.0666249,25.8533616 63.7070155,26.0906009 63.5079899,26.3594358 L63.5066267,25.7220765 C63.5066267,25.6346439 63.4444653,25.5643709 63.3569485,25.5643709 L62.0155703,25.5643709 C61.9280535,25.5643709 61.8656194,25.6346439 61.8656194,25.7220765 L61.8656194,33.5191048 C61.8656194,33.6065374 61.93596,33.6768103 62.0248399,33.6768103 L63.3992074,33.6768103 C63.4869968,33.6768103 63.5570647,33.6065374 63.5570647,33.5191048 L63.5570647,29.6238591 C63.5570647,29.100353 63.6154092,28.5795705 63.7310077,28.2521749 C63.8436071,27.927503 63.9976475,27.6690184 64.1887666,27.4835305 C64.3796131,27.2977702 64.5971781,27.1681194 64.8360089,27.0951227 C65.0789292,27.0207641 65.3480228,26.9957055 65.5364155,26.9957055 C65.8109619,26.9957055 66.1108635,27.0673403 66.1108635,27.0673403 C66.2131027,27.077963 66.2687208,27.0155889 66.3033458,26.9254326 C66.3922258,26.6868314 66.6482327,25.9699384 66.6959444,25.8280307" id="Fill-11" fill="#06B39A" mask="url(#mask-12)"></path>
                    <path d="M53.793903,22.2146939 C53.626776,22.1632149 53.475462,22.1286232 53.276709,22.092942 C53.074957,22.0556265 52.8361262,22.037105 52.5653968,22.037105 C51.6196161,22.037105 50.8742242,22.3048503 50.3502142,22.8324422 C49.8300212,23.3559483 49.4758646,24.1537369 49.2981048,25.2021112 L49.2343075,25.5559273 L48.0469696,25.5559273 C48.0469696,25.5559273 47.9011084,25.5507522 47.8719361,25.7084577 L47.6770001,26.795237 C47.6622776,26.8984674 47.7075355,26.9635652 47.8468534,26.9635652 L49.0036559,26.9635652 L47.8294046,33.505486 C47.7380709,34.0314436 47.6331054,34.4647934 47.5164164,34.7935509 C47.4024537,35.1182228 47.2895817,35.3609096 47.1516269,35.5371367 C47.0177617,35.7068268 46.8915304,35.8340263 46.6726022,35.9067506 C46.4923886,35.9664009 46.2840932,35.9944556 46.0572585,35.9944556 C45.9310272,35.9944556 45.762537,35.9732103 45.6379415,35.9478794 C45.513346,35.9241827 45.4481856,35.8964003 45.3554887,35.857723 C45.3554887,35.857723 45.2199877,35.8059716 45.1657327,35.9413423 C45.1232012,36.052744 44.8153931,36.8995602 44.7783144,37.0041525 C44.7412356,37.1076553 44.7930368,37.1885509 44.8592878,37.2122476 C45.0130555,37.2667227 45.1272908,37.302404 45.3369493,37.3514316 C45.6286718,37.4203427 45.8740459,37.4244283 46.103607,37.4244283 C46.5850854,37.4244283 47.024305,37.3568791 47.3877313,37.225594 C47.7538839,37.092947 48.0723249,36.8622448 48.3547778,36.5522812 C48.658769,36.2156247 48.8509787,35.8631705 49.0341913,35.3821549 C49.2157681,34.9063145 49.3698085,34.3149867 49.494404,33.6258761 L50.6724722,26.9635652 L52.3958161,26.9635652 C52.3958161,26.9635652 52.5416773,26.9687403 52.5708496,26.8110348 L52.7657857,25.7242555 C52.7791449,25.6210251 52.7352502,25.5559273 52.5959323,25.5559273 L50.923299,25.5559273 C50.9312055,25.5188842 51.0067262,24.9302802 51.1992085,24.3776298 C51.2812725,24.1403905 51.4353129,23.9510894 51.5667244,23.8198043 C51.6940462,23.6912429 51.8426339,23.5997246 52.0043081,23.5466114 C52.1700719,23.4937705 52.3584647,23.46735 52.5653968,23.46735 C52.7235268,23.46735 52.8772945,23.4858716 52.9953467,23.5095683 C53.1572936,23.54416 53.2208182,23.5626815 53.2633498,23.5746661 C53.4332031,23.627507 53.4555594,23.5771175 53.4901845,23.4951324 L53.8895989,22.3977305 C53.9304946,22.2797918 53.8312544,22.2294022 53.793903,22.2146939" id="Fill-12" fill="#06B39A" mask="url(#mask-12)"></path>
                    <path d="M30.4209321,33.5188324 C30.4209321,33.6065374 30.3584981,33.6781722 30.2709813,33.6781722 L28.8832546,33.6781722 C28.7957379,33.6781722 28.7333038,33.6065374 28.7333038,33.5188324 L28.7333038,22.3636835 C28.7333038,22.2762509 28.7957379,22.2059779 28.8832546,22.2059779 L30.2709813,22.2059779 C30.3584981,22.2059779 30.4209321,22.2762509 30.4209321,22.3636835 L30.4209321,33.5188324" id="Fill-13" fill="#06B39A" mask="url(#mask-12)"></path>
                </g>
                <g id="cisco" transform="translate(172.803181, 321.899497)">
                    <path d="M32.4079413,40.2001873 L32.5327874,40.2311905 C32.8650365,40.3181847 33.2000842,40.3959241 33.5368421,40.4642546 C34.1806622,40.587342 34.8311678,40.6734107 35.4849383,40.7223063 C35.9838562,40.7503789 36.4846398,40.725237 36.9782715,40.6474976 C37.314563,40.6052344 37.6405931,40.5040498 37.9414364,40.3488794 C38.2172482,40.2035807 38.4249623,39.9566346 38.5196463,39.6611014 C38.5648894,39.4777042 38.5642675,39.286132 38.5174696,39.1031975 C38.441909,38.9029876 38.3204834,38.7228296 38.1632986,38.5767597 C37.9367721,38.3620507 37.6670238,38.1971629 37.372244,38.0924306 C37.3436367,38.080708 37.3151849,38.0692939 37.2865775,38.0578798 L36.9874445,37.9489829 C36.7901473,37.8832745 36.5917617,37.8204969 36.3922879,37.7612668 C35.7879582,37.6050167 35.2046177,37.3776597 34.6543932,37.0844402 C34.2366331,36.8647954 33.8518336,36.5882343 33.5116552,36.2627775 C33.1190819,35.8949034 32.8171504,35.4425031 32.6284042,34.9407444 C32.26335,33.930903 32.2645938,32.8266637 32.6313583,31.8175935 C32.8749869,31.1551116 33.3003653,30.5732998 33.8596073,30.1378664 C34.6845553,29.4847935 35.6841012,29.0860704 36.7351093,28.9905928 C37.5647215,28.8878657 38.4039732,28.8915676 39.2326526,29.0012357 C39.8721195,29.0760445 40.5063002,29.1880263 41.1320853,29.3367184 L41.3735373,29.3880819 L41.3735373,32.4532368 L41.2429387,32.4245472 C40.6291251,32.271382 40.0048947,32.1606342 39.3753782,32.0929207 C38.8425669,32.0051553 38.2991833,31.9996025 37.7645063,32.076108 C37.4512251,32.1095791 37.1466504,32.1974987 36.8641532,32.3361649 C36.8252845,32.3560625 36.7870378,32.3773483 36.7495684,32.4003308 C36.6555063,32.4574014 36.568907,32.5254234 36.4914806,32.6031628 C36.4249375,32.6699509 36.3681893,32.7456851 36.3231017,32.8282061 C36.1940578,33.0631211 36.183641,33.3446181 36.2948053,33.5884793 C36.437531,33.8813904 36.6828698,34.1130662 36.9846459,34.240164 L39.5101747,35.1699524 C40.0768795,35.3570514 40.5983411,35.6582917 41.0419101,36.0550096 C41.5010264,36.4437068 41.8590843,36.9359023 42.0866991,37.4904128 C42.5186074,38.5591757 42.5270031,39.7508719 42.1098648,40.8254962 C41.8705895,41.4673092 41.469776,42.0377069 40.9450494,42.4819323 C40.3626417,42.9725853 39.6805748,43.3332099 38.9453356,43.5397438 C38.3187731,43.73255 37.671688,43.8537865 37.0172956,43.9005227 C36.3324302,43.9369245 35.6458545,43.9236594 34.9630102,43.8607275 C34.1831498,43.8056621 33.4073318,43.7066368 32.6386656,43.564423 L32.3939486,43.5226227 L32.4079413,40.2001873 Z" id="Fill-1" fill="#006F63"></path>
                    <path d="M18.6772988,43.4019877 L18.6772988,39.5443225 L18.6011163,39.5773309 C17.7245507,39.9984196 16.7710252,40.2385789 15.7982209,40.2831557 C14.7874808,40.3616663 13.7831151,40.067984 12.9769796,39.4582539 C12.4011018,39.0172677 11.9730803,38.4140158 11.7487305,37.727626 C11.5010596,36.9795382 11.4722968,36.1771562 11.6660181,35.4136439 C11.8459021,34.6327019 12.2866725,33.9353607 12.9168109,33.4346817 C13.4755865,32.9708673 14.1584307,32.6787274 14.8816984,32.5937385 C16.1607876,32.4532213 17.4529367,32.6938434 18.593498,33.2849099 L18.6772988,33.32779 L18.6772988,29.4480678 L18.4995914,29.4010231 C17.3579417,29.0373136 16.1590774,28.8815262 14.9613014,28.9415275 C13.8701809,28.9691373 12.7956962,29.2128443 11.80097,29.6583036 C10.7969153,30.1147143 9.9117986,30.7933919 9.21371783,31.6422016 C7.03116596,34.3817454 6.97301847,38.2332408 9.07176956,41.0363335 C10.1045871,42.347261 11.5548538,43.2722677 13.1857819,43.6608107 C14.9048641,44.0752667 16.7058814,44.0126433 18.3915366,43.4798814 L18.6772988,43.4019877" id="Fill-3" fill="#006F63"></path>
                    <mask id="mask-14" fill="white">
                        <use xlink:href="#path-13"></use>
                    </mask>
                    <g id="Clip-7"></g>
                    <polygon id="Fill-6" fill="#006F63" mask="url(#mask-14)" points="23.7454741 43.6570162 27.4226029 43.6570162 27.4226029 29.1877641 23.7454741 29.1877641"></polygon>
                    <polygon id="Fill-8" fill="#006F63" mask="url(#mask-14)" points="81.8491624 41.9764254 81.8491624 41.7577061 80.292862 41.7577061 80.292862 41.9764254 80.9401026 41.9764254 80.9401026 43.6570779 81.2019218 43.6570779 81.2019218 41.9764254"></polygon>
                    <polygon id="Fill-9" fill="#006F63" mask="url(#mask-14)" points="82.0005324 43.6570008 82.2485143 43.6570008 82.2485143 42.1403106 82.2816304 42.1403106 82.8407169 43.6570008 83.0902536 43.6570008 83.6945832 42.0670443 83.6945832 43.6570008 83.9562469 43.6570008 83.9562469 41.7577833 83.5521685 41.7577833 82.9853083 43.3219809 82.4106743 41.7577833 82.0005324 41.7577833"></polygon>
                    <path d="M0,17.5597803 C0.0343598778,18.0152655 0.240674619,18.4406729 0.57789894,18.7514764 C0.915278735,19.0619714 1.35822576,19.2345715 1.81858593,19.2345715 C2.27863515,19.2345715 2.72189312,19.0619714 3.05911744,18.7514764 C3.39649724,18.4406729 3.60296745,18.0152655 3.63701638,17.5597803 L3.63701638,13.5497211 C3.61851491,13.0834388 3.41888558,12.6426068 3.07979556,12.3191552 C2.74086102,11.9960122 2.28889647,11.8153914 1.81858593,11.8153914 C1.34827538,11.8153914 0.896310839,11.9960122 0.557220823,12.3191552 C0.218130808,12.6426068 0.0185014726,13.0834388 0,13.5497211 L0,17.5597803" id="Fill-10" fill="#006F63" mask="url(#mask-14)"></path>
                    <path d="M10.0672887,17.5597803 C10.1016486,18.0152655 10.3081188,18.4406729 10.6451877,18.7514764 C10.9825674,19.0619714 11.4255145,19.2345715 11.8858746,19.2345715 C12.3459239,19.2345715 12.7891818,19.0619714 13.1264062,18.7514764 C13.463786,18.4406729 13.6702562,18.0152655 13.7044606,17.5597803 L13.7044606,8.56992425 C13.6858036,8.10379614 13.4861743,7.66280994 13.1472397,7.33935837 C12.8081497,7.01621529 12.3561852,6.8355945 11.8858746,6.8355945 C11.4155641,6.8355945 10.9635996,7.01621529 10.6245095,7.33935837 C10.285575,7.66280994 10.0857902,8.10379614 10.0672887,8.56992425 L10.0672887,17.5597803" id="Fill-11" fill="#006F63" mask="url(#mask-14)"></path>
                    <path d="M20.0809698,21.1806178 C20.1151742,21.6357945 20.3214889,22.0615105 20.6588687,22.3720055 C20.9960931,22.6826547 21.4390401,22.8551005 21.8994003,22.8551005 C22.3594495,22.8551005 22.8027074,22.6826547 23.1400872,22.3720055 C23.4773116,22.0615105 23.6837818,21.6357945 23.7179862,21.1806178 L23.7179862,1.73465367 C23.6994847,1.26821706 23.4996999,0.827385115 23.1607654,0.503933541 C22.8216753,0.180790458 22.3697108,1.54244908e-05 21.8994003,1.54244908e-05 C21.4290897,1.54244908e-05 20.9771252,0.180790458 20.6381906,0.503933541 C20.2991006,0.827385115 20.0993158,1.26821706 20.0809698,1.73465367 L20.0809698,21.1806178" id="Fill-12" fill="#006F63" mask="url(#mask-14)"></path>
                    <path d="M30.1468748,17.5597803 C30.1810792,18.0152655 30.3873939,18.4406729 30.7247737,18.7514764 C31.061998,19.0619714 31.5051005,19.2345715 31.9651498,19.2345715 C32.4255099,19.2345715 32.8686124,19.0619714 33.2059922,18.7514764 C33.5432165,18.4406729 33.7496868,18.0152655 33.7838912,17.5597803 L33.7838912,8.56992425 C33.7652342,8.10379614 33.5654494,7.66280994 33.2266703,7.33935837 C32.8874249,7.01621529 32.4356158,6.8355945 31.9651498,6.8355945 C31.4949947,6.8355945 31.0430301,7.01621529 30.7040956,7.33935837 C30.3648501,7.66280994 30.1653763,8.10379614 30.1468748,8.56992425 L30.1468748,17.5597803" id="Fill-13" fill="#006F63" mask="url(#mask-14)"></path>
                    <path d="M40.1680031,17.5597803 C40.202363,18.0152655 40.4088332,18.4406729 40.7460575,18.7514764 C41.0834373,19.0619714 41.5263843,19.2345715 41.986589,19.2345715 C42.4467937,19.2345715 42.8900517,19.0619714 43.227276,18.7514764 C43.5646558,18.4406729 43.7709706,18.0152655 43.805175,17.5597803 L43.805175,13.5497211 C43.786518,13.0834388 43.5868887,12.6426068 43.2479541,12.3191552 C42.9090196,11.9960122 42.457055,11.8153914 41.986589,11.8153914 C41.5162785,11.8153914 41.0644694,11.9960122 40.7252239,12.3191552 C40.3862894,12.6426068 40.1865046,13.0834388 40.1680031,13.5497211 L40.1680031,17.5597803" id="Fill-14" fill="#006F63" mask="url(#mask-14)"></path>
                    <path d="M50.226181,17.5597803 C50.2603854,18.0152655 50.4668556,18.4406729 50.8040799,18.7514764 C51.1413043,19.0619714 51.5845622,19.2345715 52.0447669,19.2345715 C52.5048162,19.2345715 52.9480741,19.0619714 53.2852984,18.7514764 C53.6226782,18.4406729 53.828993,18.0152655 53.8633529,17.5597803 L53.8633529,8.56992425 C53.8446959,8.10379614 53.6450666,7.66280994 53.306132,7.33935837 C52.967042,7.01621529 52.5150775,6.8355945 52.0447669,6.8355945 C51.5744564,6.8355945 51.1224918,7.01621529 50.7834018,7.33935837 C50.4443118,7.66280994 50.2446825,8.10379614 50.226181,8.56992425 L50.226181,17.5597803" id="Fill-15" fill="#006F63" mask="url(#mask-14)"></path>
                    <path d="M60.2433603,21.1806178 C60.2775647,21.6357945 60.4838794,22.0615105 60.8212592,22.3720055 C61.1584835,22.6826547 61.6014305,22.8551005 62.0616352,22.8551005 C62.5218399,22.8551005 62.9650979,22.6826547 63.3024777,22.3720055 C63.639702,22.0615105 63.8461722,21.6357945 63.8803766,21.1806178 L63.8803766,1.73465367 C63.8617197,1.26821706 63.6619349,0.827385115 63.3231558,0.503933541 C62.9840658,0.180790458 62.5321013,1.54244908e-05 62.0616352,1.54244908e-05 C61.5914802,1.54244908e-05 61.1395156,0.180790458 60.8002701,0.503933541 C60.4613356,0.827385115 60.2617063,1.26821706 60.2433603,1.73465367 L60.2433603,21.1806178" id="Fill-16" fill="#006F63" mask="url(#mask-14)"></path>
                    <path d="M70.2933291,17.5597803 C70.3275335,18.0152655 70.5338483,18.4406729 70.8712281,18.7514764 C71.2084524,19.0619714 71.6515549,19.2345715 72.1117596,19.2345715 C72.5719643,19.2345715 73.0150668,19.0619714 73.3524466,18.7514764 C73.6896709,18.4406729 73.8961411,18.0152655 73.9303455,17.5597803 L73.9303455,8.56992425 C73.9116885,8.10379614 73.7120592,7.66280994 73.3731247,7.33935837 C73.0340347,7.01621529 72.5820701,6.8355945 72.1117596,6.8355945 C71.641449,6.8355945 71.1894845,7.01621529 70.8505499,7.33935837 C70.5114599,7.66280994 70.3118306,8.10379614 70.2933291,8.56992425 L70.2933291,17.5597803" id="Fill-17" fill="#006F63" mask="url(#mask-14)"></path>
                    <path d="M80.3193082,17.5597803 C80.3535126,18.0152655 80.5598274,18.4406729 80.8972072,18.7514764 C81.2344315,19.0619714 81.6773785,19.2345715 82.1375832,19.2345715 C82.5977879,19.2345715 83.0410459,19.0619714 83.3784257,18.7514764 C83.71565,18.4406729 83.9221202,18.0152655 83.9563246,17.5597803 L83.9563246,13.5497211 C83.9376677,13.0834388 83.7378829,12.6426068 83.3991038,12.3191552 C83.0600138,11.9960122 82.6080492,11.8153914 82.1375832,11.8153914 C81.6674281,11.8153914 81.2154636,11.9960122 80.8765291,12.3191552 C80.5372836,12.6426068 80.3376542,13.0834388 80.3193082,13.5497211 L80.3193082,17.5597803" id="Fill-18" fill="#006F63" mask="url(#mask-14)"></path>
                    <path d="M57.1007685,43.4019877 L57.1007685,39.5443225 L57.024586,39.5773309 C56.1480204,39.9984196 55.1944949,40.2385789 54.2216906,40.2831557 C53.211106,40.3616663 52.2067403,40.067984 51.4007602,39.4584081 C50.8248824,39.0172677 50.39655,38.4140158 50.1723557,37.727626 C49.9246847,36.9795382 49.8959219,36.1771562 50.0894878,35.4136439 C50.2693718,34.6327019 50.7101422,33.9353607 51.3404361,33.4346817 C51.8990562,32.9708673 52.5820559,32.6787274 53.3053236,32.5937385 C54.5844128,32.4532213 55.8765618,32.6938434 57.0174342,33.2849099 L57.1007685,33.32779 L57.1007685,29.4480678 L56.9232166,29.4010231 C55.7814114,29.0373136 54.5827026,28.8815262 53.3849265,28.9415275 C52.2936506,28.9691373 51.2191659,29.2128443 50.2245952,29.6581494 C49.2205405,30.1147143 48.3355793,30.7935461 47.637343,31.6422016 C45.4549466,34.3817454 45.3967991,38.2332408 47.4955502,41.0363335 C48.5283677,42.347261 49.9784789,43.2722677 51.6095625,43.6608107 C53.3284893,44.0752667 55.1295066,44.0126433 56.8151618,43.4798814 L57.1007685,43.4019877" id="Fill-19" fill="#006F63" mask="url(#mask-14)"></path>
                    <path d="M66.3140044,33.460564 C67.1086349,32.8309363 68.1232618,32.5403389 69.134002,32.6526292 C70.1447421,32.7649195 71.0690383,33.270997 71.703841,34.0596512 C72.3384881,34.847997 72.6314022,35.854445 72.5180612,36.8571911 C72.4048758,37.859783 71.8947637,38.7770775 71.0998223,39.4067052 C70.3051918,40.0363329 69.2907203,40.3269304 68.2801357,40.2144858 C67.2693956,40.1023498 66.3447884,39.596118 65.7101412,38.807618 C65.075494,38.0192723 64.78258,37.0128242 64.8959209,36.0100781 C65.0089509,35.0073319 65.5192184,34.0901917 66.3140044,33.460564 M60.9754744,36.4285445 C61.0112336,38.715688 62.0815204,40.8657078 63.8906224,42.2838355 C65.6997244,43.7019632 68.0554749,44.2381185 70.3067466,43.7437636 C73.3635319,43.1727489 75.7455576,40.7856547 76.2908069,37.747647 C76.8360562,34.7097935 75.4307216,31.6537391 72.7604461,30.0710321 C70.4025189,28.6235979 67.4435271,28.5410769 65.0075517,29.8553977 C62.5714208,31.1694101 61.0323781,33.6782036 60.9754744,36.4285445" id="Fill-20" fill="#006F63" mask="url(#mask-14)"></path>
                </g>
                <g id="vmware" transform="translate(300.775348, 340.623116)" fill="#006F63">
                    <path d="M9.39658052,14.8518995 C8.967833,15.9761307 8.51544732,16.6697186 7.0311332,16.6697186 C5.54518887,16.6697186 5.0944334,15.9761307 4.66894632,14.8518995 L0.27306163,3.55260302 C0.0627634195,3.00554774 0,2.67584925 0,2.27776884 C0,0.876753769 1.0906163,0.153045226 2.27415507,0.153045226 C3.48622266,0.153045226 4.00544732,1.02979899 4.21248509,1.69733668 L7.00015905,10.3232261 L7.06047714,10.3232261 L9.84652087,1.69733668 C10.0608946,1.02979899 10.5744135,0.153045226 11.785666,0.153045226 L16.0764016,0.153045226 C17.1857654,0.153045226 17.9144732,0.758713568 18.0652684,1.82107538 C19.1363221,0.664281407 20.537495,0 22.1603777,0 C23.988668,0 25.524334,0.758713568 26.6744533,2.21182915 C27.8824453,0.815698492 29.8085487,0 31.3042744,0 C34.8605964,0 37.2773956,2.06285427 37.2773956,5.87514573 L37.2773956,14.2470452 C37.2773956,15.6993467 36.3685487,16.6697186 35.1026839,16.6697186 C33.8319284,16.6697186 32.9279722,15.6993467 32.9279722,14.2470452 L32.9279722,6.63955779 C32.9279722,4.88116583 31.9482107,3.63563819 30.3579324,3.63563819 C28.7423857,3.63563819 27.7642545,4.88116583 27.7642545,6.63955779 L27.7642545,14.2470452 C27.7642545,15.6993467 26.851332,16.6697186 25.5895427,16.6697186 C24.3171571,16.6697186 23.4172763,15.6993467 23.4172763,14.2470452 L23.4172763,6.63955779 C23.4172763,4.88116583 22.4342545,3.63563819 20.8439761,3.63563819 C19.0458449,3.63563819 18.2478529,4.88116583 18.2478529,6.63955779 L18.2478529,14.2470452 C18.2478529,15.6993467 17.3414513,16.6697186 16.0764016,16.6697186 C14.8040159,16.6697186 13.9000596,15.6993467 13.9000596,14.2470452 L13.9000596,3.36780905 L9.39658052,14.8518995" id="Fill-2"></path>
                    <path d="M38.7723062,2.36813065 C38.6533002,1.97086432 38.5571173,1.61348744 38.5571173,1.33833166 C38.5571173,0.818954774 38.9247316,0.153045226 39.8360239,0.153045226 C40.4106759,0.153045226 40.955169,0.362261307 41.3235984,1.52149749 L44.749503,12.5570352 L44.809006,12.5570352 L48.1754076,1.91550754 C48.5430219,0.759527638 48.7802187,0.153045226 49.7567197,0.153045226 C50.7234394,0.153045226 50.9687873,0.759527638 51.3298807,1.91550754 L54.6995427,12.5570352 L54.7606759,12.5570352 L58.1849503,1.52149749 C58.5525646,0.362261307 59.0978728,0.153045226 59.6676342,0.153045226 C60.5821869,0.153045226 60.9416501,0.818954774 60.9416501,1.33751759 C60.9416501,1.61023116 60.8503579,1.97086432 60.7305368,2.36731658 L56.3053082,15.274402 C55.9442147,16.3050151 55.5195427,16.6697186 54.7606759,16.6697186 C54.0287078,16.6697186 53.5779523,16.3050151 53.2502783,15.274402 L49.7909543,4.36992965 L49.7314513,4.36992965 L46.2721272,15.274402 C45.9395626,16.3050151 45.4888072,16.6697186 44.7617296,16.6697186 C44.0012326,16.6697186 43.579006,16.3050151 43.2122068,15.274402 L38.7723062,2.36813065" id="Fill-3"></path>
                    <path d="M64.7286481,8.41178894 C64.7286481,5.66267337 65.8828429,2.43976884 69.1620278,2.43976884 C72.4420278,2.43976884 73.5970378,5.66267337 73.5970378,8.41178894 C73.5970378,11.1511357 72.4420278,14.3805528 69.1620278,14.3805528 C65.8828429,14.3805528 64.7286481,11.1511357 64.7286481,8.41178894 Z M76.1132803,1.44009045 C76.1132803,0.512864322 75.380497,0.153045226 74.866163,0.153045226 C74.3192247,0.153045226 73.628827,0.512864322 73.628827,1.44009045 L73.628827,2.28753769 L73.5652485,2.28753769 C72.3230219,0.929668342 71.0164016,0.153045226 69.1620278,0.153045226 C64.6071968,0.153045226 62.0575348,4.11512563 62.0575348,8.41178894 C62.0575348,12.7076382 64.6071968,16.6697186 69.1620278,16.6697186 C70.8965805,16.6697186 72.4094235,15.8882111 73.5652485,14.2576281 L73.628827,14.2576281 L73.628827,15.3761608 C73.628827,16.3115276 74.3192247,16.6697186 74.866163,16.6697186 C75.380497,16.6697186 76.1132803,16.3115276 76.1132803,15.3761608 L76.1132803,1.44009045 L76.1132803,1.44009045 Z" id="Fill-4"></path>
                    <path d="M79.6255865,1.58011055 C79.6255865,0.700914573 80.1382903,0.157929648 80.9550298,0.157929648 C81.7733996,0.157929648 82.2942545,0.700914573 82.2942545,1.58011055 L82.2942545,2.95019095 L82.3570179,2.95019095 C82.9601988,1.70140704 84.4510338,0.157929648 85.9964811,0.157929648 C86.9305964,0.157929648 87.4824254,0.76278392 87.4824254,1.52149749 C87.4824254,2.28021106 86.9305964,2.76376884 85.8098211,2.97786935 C84.2325845,3.24976884 82.2942545,4.43424121 82.2942545,7.56027136 L82.2942545,15.2442814 C82.2942545,16.1242915 81.7733996,16.6697186 80.9550298,16.6697186 C80.1382903,16.6697186 79.6255865,16.1242915 79.6255865,15.2442814 L79.6255865,1.58011055" id="Fill-5"></path>
                    <path d="M90.8806163,7.44874372 C90.9702783,4.97478392 92.1481113,2.31847236 95.4599006,2.43976884 C98.4065209,2.43976884 99.7392247,5.12620101 99.7392247,7.44874372 L90.8806163,7.44874372 Z M100.925209,9.45054271 C102.074513,9.45054271 102.411153,8.96291457 102.411153,8.02673367 C102.411153,4.11512563 99.8631213,0.153045226 95.4599006,0.153045226 C90.9368588,0.153045226 88.2046123,4.02476382 88.2046123,8.41830151 C88.2046123,12.7092663 90.4543141,16.6697186 95.612326,16.6697186 C98.7676143,16.6697186 102.074513,14.6858291 102.074513,13.3800603 C102.074513,12.6156482 101.594414,12.1931457 101.105348,12.1931457 C100.105209,12.1931457 99.1922863,14.3805528 95.6375944,14.3805528 C92.6396223,14.3805528 90.8806163,12.2224523 90.8806163,9.45054271 L100.925209,9.45054271 L100.925209,9.45054271 Z" id="Fill-6"></path>
                    <path d="M104.474195,0.429015075 L104.474195,0.781507538 L103.634632,0.781507538 L103.634632,3.18952764 L103.212406,3.18952764 L103.212406,0.781507538 L102.376103,0.781507538 L102.376103,0.429015075 L104.474195,0.429015075 Z M107.15998,3.18952764 L107.04668,1.53370854 C107.030378,1.31065327 107.042604,1.05015075 107.035268,0.775809045 L107.018151,0.775809045 C106.949682,1.03549749 106.865726,1.33019095 106.778509,1.57196985 L106.210378,3.14963819 L105.884334,3.14963819 L105.328429,1.53370854 C105.255885,1.30739698 105.187416,1.03142714 105.118946,0.775809045 L105.102644,0.775809045 C105.096123,1.0379397 105.102644,1.27564824 105.084712,1.52719598 L104.986899,3.18952764 L104.579344,3.18952764 L104.789642,0.429015075 L105.351252,0.429015075 L105.884334,1.91957789 C105.952803,2.13042211 106.010676,2.3559196 106.079145,2.61805025 L106.097893,2.61805025 C106.155765,2.3559196 106.217714,2.1198392 106.295964,1.91550754 L106.827416,0.429015075 L107.368648,0.429015075 L107.577316,3.18952764 L107.15998,3.18952764 L107.15998,3.18952764 Z" id="Fill-10"></path>
                </g>
            </g>
        </g>
    </g>
</svg>